<svg xmlns="http://www.w3.org/2000/svg" xmlns:xlink="http://www.w3.org/1999/xlink" preserveAspectRatio="xMidYMid" width="32" height="32.125" viewBox="0 0 32 32.125">
  <defs>
    <style>
      .cls-1 {
        fill: #26a6ff;
        fill-rule: evenodd;
      }
    </style>
  </defs>
  <path d="M31.659,23.948 L31.373,24.055 C31.033,24.273 30.615,24.074 30.412,23.725 L28.911,20.937 C27.995,27.336 22.504,32.127 15.999,32.127 C9.491,32.127 4.005,27.335 3.091,20.933 L1.587,23.725 C1.384,24.074 0.966,24.273 0.626,24.055 L0.341,23.948 C0.001,23.728 -0.110,23.269 0.093,22.920 L2.664,18.191 C2.668,18.185 2.667,18.179 2.670,18.173 L2.854,17.856 C2.956,17.681 3.118,17.567 3.298,17.525 C3.476,17.481 3.672,17.508 3.841,17.618 L4.149,17.815 C4.155,17.819 4.159,17.824 4.165,17.829 L8.714,20.901 C9.054,21.120 9.165,21.579 8.963,21.929 L8.758,22.154 C8.555,22.504 8.093,22.518 7.753,22.300 L5.036,20.452 C5.682,25.639 9.869,29.618 14.999,30.080 L14.999,10.031 L11.000,10.031 C10.448,10.031 10.000,9.583 10.000,9.031 C10.000,8.479 10.448,8.031 11.000,8.031 L15.056,8.031 C15.065,8.002 15.063,7.968 15.074,7.940 C13.304,7.514 11.984,5.932 11.984,4.031 C11.984,1.804 13.789,-0.000 16.016,-0.000 C18.242,-0.000 20.047,1.804 20.047,4.031 C20.047,5.943 18.713,7.535 16.927,7.950 C16.936,7.975 16.935,8.005 16.943,8.031 L21.000,8.031 C21.552,8.031 22.000,8.479 22.000,9.031 C22.000,9.583 21.552,10.031 21.000,10.031 L16.999,10.031 L16.999,30.080 C22.131,29.618 26.323,25.637 26.967,20.450 L24.246,22.300 C23.906,22.518 23.445,22.504 23.242,22.154 L23.037,21.929 C22.834,21.579 22.945,21.120 23.285,20.901 L27.835,17.829 C27.841,17.824 27.844,17.819 27.850,17.815 L28.158,17.618 C28.327,17.508 28.524,17.481 28.702,17.525 C28.882,17.567 29.043,17.681 29.146,17.856 L29.329,18.173 C29.333,18.179 29.332,18.185 29.336,18.191 L31.907,22.920 C32.110,23.269 31.999,23.728 31.659,23.948 ZM18.047,4.031 C18.047,2.911 17.136,2.000 16.016,2.000 C14.895,2.000 13.984,2.911 13.984,4.031 C13.984,5.151 14.895,6.062 16.016,6.062 C17.136,6.062 18.047,5.151 18.047,4.031 Z" class="cls-1"/>
</svg>
