<svg xmlns="http://www.w3.org/2000/svg" xmlns:xlink="http://www.w3.org/1999/xlink" preserveAspectRatio="xMidYMid" width="24.719" height="47.906" viewBox="0 0 24.719 47.906">
  <defs>
    <style>
      .cls-1 {
        fill: #d0d0d0;
        fill-rule: evenodd;
      }
    </style>
  </defs>
  <path d="M24.542,0.828 L1.354,24.015 L24.366,47.027 C24.560,47.221 24.560,47.535 24.366,47.729 C24.172,47.923 23.857,47.923 23.663,47.729 L0.301,24.366 C0.301,24.366 0.300,24.366 0.300,24.366 C0.300,24.366 0.300,24.366 0.300,24.366 L0.125,24.191 C-0.069,23.997 -0.069,23.682 0.125,23.488 C0.250,23.363 0.418,23.348 0.579,23.385 L23.839,0.125 C24.033,-0.069 24.348,-0.069 24.542,0.125 C24.736,0.319 24.736,0.634 24.542,0.828 Z" class="cls-1"/>
</svg>
