<svg xmlns="http://www.w3.org/2000/svg" xmlns:xlink="http://www.w3.org/1999/xlink" preserveAspectRatio="xMidYMid" width="24.718" height="47.907" viewBox="0 0 24.718 47.907">
  <defs>
    <style>
      .cls-1 {
        fill: #dedede;
        fill-rule: evenodd;
      }
    </style>
  </defs>
  <path d="M24.556,24.206 L24.380,24.382 C24.380,24.382 24.380,24.382 24.380,24.382 C24.380,24.382 24.380,24.382 24.380,24.382 L1.017,47.745 C0.823,47.939 0.508,47.939 0.314,47.745 C0.120,47.551 0.120,47.236 0.314,47.042 L23.326,24.031 L0.139,0.843 C-0.055,0.649 -0.055,0.335 0.139,0.141 C0.333,-0.053 0.647,-0.053 0.841,0.141 L24.101,23.401 C24.262,23.364 24.430,23.378 24.556,23.504 C24.750,23.698 24.750,24.012 24.556,24.206 Z" class="cls-1"/>
</svg>
