<svg xmlns="http://www.w3.org/2000/svg" xmlns:xlink="http://www.w3.org/1999/xlink" preserveAspectRatio="xMidYMid" width="21.031" height="31.937" viewBox="0 0 21.031 31.937">
  <defs>
    <style>
      .cls-1 {
        fill: #26a6ff;
        fill-rule: evenodd;
      }
    </style>
  </defs>
  <path d="M13.120,1.991 L13.125,1.991 M13.120,1.991 L10.863,13.846 L19.038,13.874 L7.910,29.946 L10.167,16.903 L1.993,16.875 L13.120,1.991 M13.121,-0.009 C13.067,-0.009 13.013,-0.007 12.960,-0.003 C12.607,0.025 12.373,0.143 12.096,0.330 C11.941,0.432 11.800,0.557 11.677,0.703 C11.640,0.746 11.606,0.791 11.574,0.837 L0.367,15.669 C-0.075,16.275 -0.140,17.076 0.200,17.745 C0.539,18.414 1.226,18.838 1.978,18.844 L7.751,18.886 L5.936,29.579 C5.763,30.498 6.254,31.414 7.116,31.783 C7.373,31.893 7.643,31.946 7.909,31.946 C8.538,31.946 9.055,31.652 9.442,31.121 L20.663,15.049 C21.105,14.442 21.170,13.640 20.831,12.972 C20.491,12.304 19.805,11.880 19.052,11.874 L13.280,11.864 L15.075,2.462 C15.112,2.310 15.132,2.153 15.132,1.991 C15.132,0.909 14.271,0.027 13.193,-0.008 C13.168,-0.009 13.145,-0.009 13.121,-0.009 L13.121,-0.009 Z" class="cls-1"/>
</svg>
