<svg xmlns="http://www.w3.org/2000/svg" xmlns:xlink="http://www.w3.org/1999/xlink" preserveAspectRatio="xMidYMid" width="66.344" height="89.38" viewBox="0 0 66.344 89.38">
  <defs>
    <style>
      .cls-1 {
        fill: #fff;
        fill-rule: evenodd;
      }
    </style>
  </defs>
  <path d="M50.343,89.375 L16.000,89.375 C7.163,89.375 -0.000,82.211 -0.000,73.375 L-0.000,16.000 C-0.000,7.163 7.163,-0.000 16.000,-0.000 L50.343,-0.000 C59.180,-0.000 66.343,7.163 66.343,16.000 L66.343,73.375 C66.343,82.211 59.180,89.375 50.343,89.375 ZM61.729,17.044 C61.729,8.903 57.356,4.606 49.214,4.606 L17.055,4.606 C8.914,4.606 4.618,8.442 4.618,16.583 L4.618,72.293 C4.618,80.434 8.684,84.731 16.825,84.731 L51.287,84.731 C59.429,84.731 61.729,77.671 61.729,69.529 L61.729,17.044 ZM33.640,76.469 C30.335,76.469 27.656,73.789 27.656,70.484 C27.656,67.179 30.335,64.500 33.640,64.500 C36.945,64.500 39.625,67.179 39.625,70.484 C39.625,73.789 36.945,76.469 33.640,76.469 Z" class="cls-1"/>
</svg>
