<svg xmlns="http://www.w3.org/2000/svg" xmlns:xlink="http://www.w3.org/1999/xlink" preserveAspectRatio="xMidYMid" width="210" height="89" viewBox="0 0 210 89">
  <defs>
    <style>
      .cls-1, .cls-2 {
        fill: #26a6ff;
      }

      .cls-1 {
        stroke: #26a6ff;
        stroke-linejoin: round;
        stroke-width: 2px;
        fill-opacity: 0;
      }

      .cls-2 {
        fill-rule: evenodd;
      }
    </style>
  </defs>
  <g>
    <rect x="5.5" y="5.69" width="199.5" height="77.97" rx="10" ry="10" class="cls-1"/>
    <path d="M138.708,42.451 L148.308,42.451 L148.308,44.371 C147.684,46.355 146.492,48.131 144.732,49.699 C146.540,50.707 148.740,51.643 151.332,52.507 L150.156,54.667 C147.292,53.626 144.852,52.467 142.836,51.187 C140.948,52.498 138.620,53.698 135.852,54.787 L134.652,52.627 C137.036,51.763 139.092,50.811 140.820,49.771 C139.252,48.523 138.084,47.187 137.316,45.763 C135.588,49.299 133.412,52.131 130.788,54.259 L129.612,52.147 C132.924,49.219 135.396,45.235 137.028,40.195 L131.172,40.195 L133.068,33.187 L135.348,33.571 L134.100,38.011 L137.652,38.011 C138.084,36.315 138.452,34.443 138.756,32.395 L141.084,32.683 C140.812,34.491 140.460,36.267 140.028,38.011 L151.020,38.011 L151.020,40.195 L139.452,40.195 C139.404,40.371 139.156,41.123 138.708,42.451 ZM142.716,48.451 C144.236,47.219 145.332,45.907 146.004,44.515 L138.972,44.515 C139.772,45.939 141.020,47.251 142.716,48.451 ZM143.580,33.931 L145.116,32.419 C146.748,33.651 148.140,34.915 149.292,36.211 L147.660,37.843 C146.684,36.579 145.324,35.275 143.580,33.931 ZM121.740,54.331 L119.460,54.331 L119.460,43.939 L113.028,43.939 C112.788,46.371 112.316,48.371 111.612,49.939 C110.700,51.955 109.172,53.506 107.028,54.595 L105.804,52.675 C107.724,51.539 109.036,50.107 109.740,48.379 C110.188,47.163 110.508,45.683 110.700,43.939 L105.420,43.939 L105.420,41.731 L110.868,41.731 L110.892,41.203 L110.892,35.971 L106.668,35.971 L106.668,33.763 L125.580,33.763 L125.580,35.971 L121.740,35.971 L121.740,41.731 L126.804,41.731 L126.804,43.939 L121.740,43.939 L121.740,54.331 ZM119.460,35.971 L113.196,35.971 L113.196,41.467 L113.172,41.731 L119.460,41.731 L119.460,35.971 ZM96.516,54.235 C95.700,54.235 94.268,54.219 92.220,54.187 C90.700,54.171 89.428,54.034 88.404,53.779 C87.460,53.491 86.620,52.930 85.884,52.099 C85.548,51.699 85.244,51.499 84.972,51.499 C84.476,51.499 83.612,52.579 82.380,54.739 L80.700,53.179 C81.900,51.227 82.980,50.011 83.940,49.531 L83.940,42.739 L80.724,42.739 L80.724,40.627 L86.076,40.627 L86.076,49.699 C86.204,49.795 86.324,49.915 86.436,50.059 C86.996,50.699 87.572,51.179 88.164,51.499 C88.916,51.851 89.980,52.051 91.356,52.099 C93.148,52.131 94.764,52.147 96.204,52.147 C96.956,52.147 98.148,52.131 99.780,52.099 C100.836,52.083 101.764,52.043 102.564,51.979 L102.012,54.235 L96.516,54.235 ZM96.516,46.267 L97.980,44.875 C99.484,46.107 100.812,47.371 101.964,48.667 L100.428,50.179 C99.564,49.011 98.260,47.707 96.516,46.267 ZM95.988,37.939 L101.100,37.939 L101.100,44.395 L95.988,44.395 L95.988,51.475 L93.852,51.475 L93.852,45.619 C92.652,47.475 90.932,49.107 88.692,50.515 L87.276,48.715 C89.676,47.483 91.428,46.043 92.532,44.395 L88.740,44.395 L88.740,37.939 L93.852,37.939 L93.852,36.355 L87.948,36.355 L87.948,34.291 L93.852,34.291 L93.852,32.563 L95.988,32.563 L95.988,34.291 L101.868,34.291 L101.868,36.355 L95.988,36.355 L95.988,37.939 ZM95.988,42.403 L99.012,42.403 L99.012,39.907 L95.988,39.907 L95.988,42.403 ZM93.852,39.907 L90.852,39.907 L90.852,42.403 L93.852,42.403 L93.852,39.907 ZM81.180,34.219 L82.740,32.731 C84.356,33.979 85.724,35.243 86.844,36.523 L85.236,38.107 C84.260,36.891 82.908,35.595 81.180,34.219 ZM76.596,54.523 C73.556,52.347 71.292,49.659 69.804,46.459 C68.668,50.075 66.572,52.755 63.516,54.499 L62.124,52.627 C65.004,51.123 66.924,48.707 67.884,45.379 L63.444,45.379 L63.444,43.171 L68.340,43.171 C68.484,42.163 68.556,41.107 68.556,40.003 L68.556,38.107 L64.452,38.107 L64.452,35.971 L68.556,35.971 L68.556,32.539 L70.764,32.539 L70.764,35.971 L75.876,35.971 L75.876,43.171 L77.532,43.171 L77.532,45.379 L71.460,45.379 C72.900,48.387 75.124,50.835 78.132,52.723 L76.596,54.523 ZM73.668,43.171 L73.668,38.107 L70.764,38.107 L70.764,39.499 C70.764,40.667 70.684,41.891 70.524,43.171 L73.668,43.171 ZM62.868,42.355 C62.468,40.595 61.948,38.851 61.308,37.123 L62.988,36.595 C63.628,38.163 64.196,39.931 64.692,41.899 L62.868,42.355 ZM59.028,32.563 L61.260,32.563 L61.260,54.547 L59.028,54.547 L59.028,32.563 ZM55.644,43.651 C56.140,41.619 56.428,39.467 56.508,37.195 L58.260,37.315 C58.212,39.683 57.956,41.971 57.492,44.179 L55.644,43.651 Z" class="cls-2"/>
  </g>
</svg>
