<svg xmlns="http://www.w3.org/2000/svg" xmlns:xlink="http://www.w3.org/1999/xlink" preserveAspectRatio="xMidYMid" width="210" height="89" viewBox="0 0 210 89">
  <defs>
    <style>
      .cls-1, .cls-2 {
        fill: #26a6ff;
      }

      .cls-1 {
        stroke: #26a6ff;
        stroke-linejoin: round;
        stroke-width: 2px;
        fill-opacity: 0;
      }

      .cls-2 {
        fill-rule: evenodd;
      }
    </style>
  </defs>
  <g>
    <rect x="5.5" y="5.69" width="199.5" height="77.97" rx="10" ry="10" class="cls-1"/>
    <path d="M149.364,44.059 C148.756,42.987 148.196,42.043 147.684,41.227 C142.676,41.659 137.092,41.995 130.932,42.235 L130.500,40.075 C132.324,39.675 134.844,37.115 138.060,32.395 L140.436,33.211 C138.484,35.915 136.508,38.171 134.508,39.979 C138.444,39.835 142.388,39.579 146.340,39.211 C145.684,38.235 144.900,37.163 143.988,35.995 L146.052,35.011 C148.020,37.427 149.868,40.075 151.596,42.955 L149.364,44.059 ZM109.836,41.659 C109.692,47.051 108.620,51.363 106.620,54.595 L104.940,52.819 C106.588,50.115 107.468,46.395 107.580,41.659 L107.580,34.195 C113.836,34.147 119.460,33.627 124.452,32.635 L125.580,34.699 C120.860,35.595 115.612,36.115 109.836,36.259 L109.836,39.139 L126.876,39.139 L126.876,41.347 L109.836,41.347 L109.836,41.659 ZM99.588,54.571 L97.116,54.571 L96.612,52.675 L97.236,52.699 C97.108,52.315 97.012,52.043 96.948,51.883 C94.692,52.219 92.084,52.539 89.124,52.843 L88.668,50.971 L92.244,50.707 L92.244,48.979 L87.564,48.979 L87.564,54.643 L85.476,54.643 L85.476,47.155 L92.244,47.155 L92.244,46.123 L86.628,46.123 L86.628,41.659 L92.244,41.659 L92.244,40.747 C89.684,40.811 87.644,40.843 86.124,40.843 L85.548,39.163 C91.100,39.163 95.924,38.963 100.020,38.563 L100.956,40.195 C98.956,40.419 96.772,40.579 94.404,40.675 L94.404,41.659 L100.116,41.659 L100.116,46.123 L94.404,46.123 L94.404,47.155 L101.748,47.155 L101.748,52.291 C101.748,53.811 101.028,54.571 99.588,54.571 ZM92.244,43.315 L88.692,43.315 L88.692,44.539 L92.244,44.539 L92.244,43.315 ZM98.076,44.539 L98.076,43.315 L94.404,43.315 L94.404,44.539 L98.076,44.539 ZM95.796,48.979 L94.260,48.979 L94.260,50.539 L96.372,50.299 C96.148,49.739 95.956,49.299 95.796,48.979 ZM99.708,48.979 L97.524,48.979 C97.988,49.971 98.420,51.019 98.820,52.123 L97.476,52.699 L98.964,52.747 C99.460,52.747 99.708,52.450 99.708,51.859 L99.708,48.979 ZM84.900,40.507 C84.884,45.835 83.956,50.419 82.116,54.259 L80.412,52.723 C81.916,49.555 82.676,45.483 82.692,40.507 L82.692,33.283 L101.268,33.283 L101.268,38.107 L84.900,38.107 L84.900,40.507 ZM99.108,36.427 L99.108,35.083 L84.900,35.083 L84.900,36.427 L99.108,36.427 ZM63.828,44.467 L74.940,44.467 L74.940,46.435 C73.852,48.051 72.148,49.691 69.828,51.355 C71.124,51.835 72.372,52.339 73.572,52.867 L72.324,54.835 C68.676,53.122 65.012,51.795 61.332,50.851 L62.532,49.075 C64.404,49.555 66.012,50.027 67.356,50.491 C69.420,49.179 71.028,47.867 72.180,46.555 L60.564,46.555 C61.108,45.099 61.644,43.507 62.172,41.779 L56.052,41.779 L56.052,39.595 L62.796,39.595 L63.396,37.171 L57.684,37.171 L57.684,35.035 L63.876,35.035 L64.428,32.275 L66.780,32.467 C66.508,33.875 66.348,34.731 66.300,35.035 L76.332,35.035 L76.332,37.171 L65.844,37.171 C65.636,38.099 65.444,38.907 65.268,39.595 L77.748,39.595 L77.748,41.779 L64.668,41.779 C64.284,43.043 64.004,43.939 63.828,44.467 ZM125.076,54.643 L122.796,54.643 L122.796,53.683 L113.940,53.683 L113.940,54.643 L111.660,54.643 L111.660,44.179 L125.076,44.179 L125.076,54.643 ZM122.796,46.363 L113.940,46.363 L113.940,51.451 L122.796,51.451 L122.796,46.363 ZM148.908,54.667 L146.604,54.667 L146.604,53.683 L134.796,53.683 L134.796,54.667 L132.492,54.667 L132.492,44.467 L148.908,44.467 L148.908,54.667 ZM146.604,46.651 L134.796,46.651 L134.796,51.499 L146.604,51.499 L146.604,46.651 Z" class="cls-2"/>
  </g>
</svg>
