<svg xmlns="http://www.w3.org/2000/svg" xmlns:xlink="http://www.w3.org/1999/xlink" preserveAspectRatio="xMidYMid" width="101.22" height="101.219" viewBox="0 0 101.22 101.219">
  <defs>
    <style>
      .cls-1 {
        fill: #f1f1f1;
      }

      .cls-2 {
        fill: #26a6ff;
        fill-rule: evenodd;
      }
    </style>
  </defs>
  <g>
    <circle cx="50.61" cy="50.61" r="50.61" class="cls-1"/>
    <path d="M67.682,62.304 L63.742,62.304 C63.461,61.257 63.242,60.475 62.519,59.929 L67.312,59.929 L67.312,57.817 C67.155,57.708 66.939,57.584 66.764,57.510 C66.694,57.480 66.611,57.441 66.545,57.405 L58.958,53.264 C58.257,52.881 57.796,52.173 57.728,51.377 C57.662,50.582 58.000,49.806 58.627,49.312 C60.676,47.700 61.365,44.148 61.365,42.288 L61.365,37.274 C61.365,35.528 58.217,32.594 54.787,32.594 C53.069,32.594 51.486,33.174 50.235,34.148 C49.304,33.851 48.227,33.850 47.249,33.789 C48.963,31.785 51.907,30.219 54.787,30.219 C59.217,30.219 63.740,33.954 63.740,37.274 L63.740,42.288 C63.740,44.697 62.874,48.993 60.095,51.179 L67.682,55.320 C67.682,55.320 69.687,56.146 69.687,57.326 L69.687,60.298 C69.687,61.405 68.789,62.304 67.682,62.304 ZM55.429,43.187 L55.429,48.201 C55.429,50.610 54.674,54.906 51.896,57.092 L59.372,61.232 C59.372,61.232 61.376,62.058 61.376,63.239 L61.376,66.248 C61.376,67.355 60.478,68.254 59.372,68.254 L33.694,68.254 C32.588,68.254 31.690,67.355 31.690,66.248 L31.690,63.239 C31.690,62.125 33.694,61.232 33.694,61.232 L41.363,57.073 C38.556,54.822 37.629,50.392 37.629,48.201 L37.629,43.187 C37.629,39.867 42.157,36.169 46.587,36.169 C51.018,36.169 55.429,39.867 55.429,43.187 ZM53.054,43.187 C53.054,41.441 50.017,38.544 46.587,38.544 C43.220,38.544 40.004,41.481 40.004,43.187 L40.004,48.201 C40.004,50.088 40.858,53.623 42.849,55.220 C43.469,55.718 43.799,56.493 43.729,57.286 C43.658,58.077 43.194,58.781 42.495,59.160 L34.825,63.320 C34.772,63.350 34.716,63.377 34.661,63.402 C34.473,63.488 34.235,63.632 34.065,63.756 L34.065,65.879 L59.002,65.879 L59.002,63.730 C58.844,63.621 58.628,63.497 58.453,63.423 C58.384,63.393 58.300,63.353 58.234,63.318 L50.758,59.177 C50.058,58.794 49.596,58.085 49.529,57.290 C49.463,56.494 49.800,55.719 50.428,55.225 C52.477,53.613 53.054,50.061 53.054,48.201 L53.054,43.187 Z" class="cls-2"/>
  </g>
</svg>
