<svg xmlns="http://www.w3.org/2000/svg" xmlns:xlink="http://www.w3.org/1999/xlink" preserveAspectRatio="xMidYMid" width="101.219" height="101.219" viewBox="0 0 101.219 101.219">
  <defs>
    <style>
      .cls-1 {
        fill: #f1f1f1;
      }

      .cls-2 {
        fill: #26a6ff;
        fill-rule: evenodd;
      }
    </style>
  </defs>
  <g>
    <ellipse cx="50.61" cy="50.61" rx="50.609" ry="50.609" class="cls-1"/>
    <path d="M50.683,72.461 C43.818,72.461 38.114,66.894 38.114,60.028 L38.114,40.432 C38.114,33.567 43.818,28.000 50.683,28.000 C57.549,28.000 63.116,33.567 63.116,40.432 L63.116,60.028 C63.116,66.894 57.549,72.461 50.683,72.461 ZM60.337,40.432 C60.337,35.110 56.006,30.779 50.683,30.779 C45.360,30.779 40.893,35.110 40.893,40.432 L40.893,60.028 C40.893,65.351 45.360,69.682 50.683,69.682 C56.006,69.682 60.337,65.351 60.337,60.028 L60.337,40.432 ZM50.630,46.062 C49.862,46.062 49.240,45.440 49.240,44.673 L49.240,37.726 C49.240,36.958 49.862,36.336 50.630,36.336 C51.397,36.336 52.019,36.958 52.019,37.726 L52.019,44.673 C52.019,45.440 51.397,46.062 50.630,46.062 Z" class="cls-2"/>
  </g>
</svg>
