<svg xmlns="http://www.w3.org/2000/svg" xmlns:xlink="http://www.w3.org/1999/xlink" preserveAspectRatio="xMidYMid" width="46.031" height="45.094" viewBox="0 0 46.031 45.094">
  <defs>
    <style>
      .cls-1 {
        fill: #6e6e6e;
      }

      .cls-1, .cls-2 {
        fill-rule: evenodd;
      }

      .cls-2 {
        fill: #26a6ff;
      }
    </style>
  </defs>
  <g>
    <path d="M45.117,13.015 L42.953,13.015 L42.753,39.894 C42.753,39.894 41.400,43.798 37.783,44.717 C34.903,45.448 8.396,44.906 8.396,44.906 C8.396,44.906 3.989,43.488 3.698,39.752 C3.413,36.093 2.893,13.919 2.872,13.015 L0.929,13.015 C0.417,13.015 0.001,12.600 0.001,12.087 L0.001,12.008 C0.001,11.495 0.417,11.080 0.929,11.080 L2.960,11.080 L3.283,9.846 C3.283,9.846 5.800,7.319 11.211,6.008 C14.790,5.142 17.396,4.736 19.682,4.558 L19.682,2.410 C19.682,2.410 20.565,0.004 23.054,0.004 C25.543,0.004 26.388,2.374 26.388,2.374 L26.410,4.662 C30.882,5.130 37.525,6.261 39.686,7.583 C42.530,9.322 43.118,10.227 43.118,10.227 L43.188,11.080 L45.117,11.080 C45.629,11.080 46.045,11.495 46.045,12.008 L46.045,12.087 C46.045,12.600 45.629,13.015 45.117,13.015 ZM6.295,38.288 C6.295,38.288 6.830,41.989 10.827,42.040 C14.823,42.091 36.195,42.040 36.195,42.040 C36.195,42.040 39.614,41.469 39.822,38.477 C40.070,34.933 40.053,13.025 40.053,13.025 L41.107,13.015 L5.930,13.015 L6.295,38.288 ZM23.075,1.605 C21.278,1.605 21.318,2.614 21.318,2.614 L21.333,4.464 C21.904,4.444 22.468,4.431 23.027,4.431 C23.458,4.431 24.032,4.459 24.695,4.507 L24.695,2.516 C24.695,2.516 24.872,1.605 23.075,1.605 ZM40.725,10.381 C40.134,10.155 38.700,8.474 32.660,7.457 C26.621,6.440 22.834,6.417 22.834,6.417 C22.834,6.417 17.112,6.513 13.166,7.482 C9.221,8.451 5.473,10.116 5.473,10.481 C5.473,10.727 5.426,10.952 5.395,11.080 L40.879,11.080 C41.002,10.866 41.114,10.530 40.725,10.381 ZM27.130,22.593 L18.649,22.593 C16.413,22.593 14.600,20.780 14.600,18.543 C14.600,16.307 16.413,14.558 18.649,14.558 L27.130,14.558 C29.366,14.558 31.179,16.307 31.179,18.543 C31.179,20.780 29.366,22.593 27.130,22.593 ZM26.353,16.206 L19.271,16.206 C17.732,16.206 16.484,17.071 16.484,18.610 C16.484,20.150 17.732,20.951 19.271,20.951 L26.353,20.951 C27.893,20.951 29.141,20.150 29.141,18.610 C29.141,17.071 27.893,16.206 26.353,16.206 ZM17.799,24.620 C18.716,24.620 19.459,25.363 19.459,26.280 C19.459,27.197 18.716,27.940 17.799,27.940 C16.883,27.940 16.139,27.197 16.139,26.280 C16.139,25.363 16.883,24.620 17.799,24.620 ZM22.906,24.620 C23.823,24.620 24.566,25.363 24.566,26.280 C24.566,27.197 23.823,27.940 22.906,27.940 C21.989,27.940 21.246,27.197 21.246,26.280 C21.246,25.363 21.989,24.620 22.906,24.620 ZM27.694,24.620 C28.611,24.620 29.354,25.363 29.354,26.280 C29.354,27.197 28.611,27.940 27.694,27.940 C26.777,27.940 26.034,27.197 26.034,26.280 C26.034,25.363 26.777,24.620 27.694,24.620 Z" class="cls-1"/>
    <path d="M10.201,12.984 L10.503,26.726 C10.503,26.726 11.201,32.857 15.607,32.936 C20.013,33.015 30.307,32.830 30.307,32.830 C30.307,32.830 35.406,30.659 35.536,26.588 C35.667,22.517 35.918,12.978 35.918,12.978 L33.323,13.031 L32.874,26.332 C32.874,26.332 32.407,29.759 28.753,30.074 C25.100,30.390 15.872,29.994 15.872,29.994 C15.872,29.994 13.397,28.882 13.138,26.471 C12.795,23.283 12.631,12.981 12.631,12.981 L10.201,12.984 Z" class="cls-2"/>
  </g>
</svg>
