<svg xmlns="http://www.w3.org/2000/svg" xmlns:xlink="http://www.w3.org/1999/xlink" preserveAspectRatio="xMidYMid" width="44.781" height="50" viewBox="0 0 44.781 50">
  <defs>
    <style>
      .cls-1 {
        fill: #6e6e6e;
        mix-blend-mode: darken;
      }

      .cls-1, .cls-2 {
        fill-rule: evenodd;
      }

      .cls-2 {
        fill: #26a6ff;
      }
    </style>
  </defs>
  <g>
    <path d="M44.138,46.290 C43.557,46.618 42.819,46.412 42.491,45.831 L39.500,41.874 C39.172,41.292 39.377,40.555 39.959,40.227 C40.540,39.899 41.277,40.104 41.605,40.686 L44.596,44.643 C44.924,45.224 44.719,45.962 44.138,46.290 ZM40.528,33.922 C40.551,33.551 40.585,33.182 40.585,32.805 C40.585,22.945 32.594,14.952 22.737,14.952 C13.480,14.952 5.871,22.003 4.980,31.030 L37.929,31.030 C38.596,31.030 39.007,31.657 39.007,32.325 C39.007,32.992 38.596,34.009 37.929,34.009 L3.034,34.009 C2.927,34.009 2.825,33.973 2.726,33.922 L1.838,33.922 C1.818,33.547 1.781,33.177 1.781,32.797 C1.781,21.328 11.071,12.031 22.531,12.031 C33.991,12.031 43.281,21.328 43.281,32.797 C43.281,33.177 43.245,33.547 43.224,33.922 L40.528,33.922 ZM22.455,10.152 C21.596,10.152 20.901,9.456 20.901,8.598 L20.901,1.310 C20.901,0.452 21.596,-0.244 22.455,-0.244 C23.313,-0.244 24.009,0.452 24.009,1.310 L24.009,8.598 C24.009,9.456 23.313,10.152 22.455,10.152 ZM3.868,40.095 C4.443,40.435 4.634,41.176 4.294,41.751 L2.252,45.622 C1.913,46.197 1.172,46.388 0.597,46.048 C0.022,45.709 -0.169,44.968 0.171,44.393 L2.213,40.522 C2.553,39.947 3.294,39.756 3.868,40.095 ZM11.466,42.929 C11.710,42.308 12.412,42.003 13.033,42.247 C13.654,42.492 13.959,43.194 13.715,43.815 L12.286,47.603 C12.041,48.224 11.339,48.529 10.718,48.285 C10.097,48.040 9.792,47.338 10.037,46.717 L11.466,42.929 ZM22.103,42.898 C22.770,42.892 23.316,43.428 23.323,44.095 L23.290,48.494 C23.297,49.161 22.761,49.708 22.093,49.714 C21.426,49.720 20.880,49.184 20.873,48.517 L20.906,44.118 C20.899,43.451 21.435,42.905 22.103,42.898 ZM30.527,41.083 C31.143,40.824 31.851,41.113 32.110,41.728 L34.131,46.306 C34.390,46.922 34.101,47.630 33.485,47.889 C32.870,48.148 32.162,47.859 31.903,47.243 L29.882,42.665 C29.623,42.050 29.912,41.341 30.527,41.083 Z" class="cls-1"/>
    <path d="M23.280,19.505 C22.899,19.760 22.438,19.760 22.049,19.581 C19.511,19.617 16.953,20.348 14.684,21.863 C12.430,23.369 10.779,25.434 9.772,27.748 L9.396,27.761 C9.504,28.217 9.334,28.710 8.922,28.985 C8.392,29.339 7.675,29.196 7.321,28.666 C7.152,28.413 7.103,28.119 7.149,27.841 L7.057,27.844 C8.235,24.744 10.342,21.962 13.311,19.979 C15.961,18.209 18.937,17.324 21.903,17.221 L21.935,17.362 C22.512,17.025 23.255,17.179 23.631,17.741 C24.021,18.325 23.864,19.115 23.280,19.505 Z" class="cls-2"/>
  </g>
</svg>
