<svg xmlns="http://www.w3.org/2000/svg" xmlns:xlink="http://www.w3.org/1999/xlink" preserveAspectRatio="xMidYMid" width="101.218" height="101.219" viewBox="0 0 101.218 101.219">
  <defs>
    <style>
      .cls-1 {
        fill: #f1f1f1;
      }

      .cls-2 {
        fill: #26a6ff;
        fill-rule: evenodd;
      }
    </style>
  </defs>
  <g>
    <circle cx="50.609" cy="50.61" r="50.609" class="cls-1"/>
    <path d="M69.432,66.514 L34.872,66.514 C33.515,66.514 32.403,65.403 32.403,64.046 L32.403,45.550 C32.403,44.692 32.848,43.935 33.517,43.493 L39.809,37.201 L39.809,33.136 C39.809,32.454 40.361,31.902 41.044,31.902 L45.120,31.902 L49.610,28.056 C51.009,26.656 53.450,26.659 54.847,28.056 L59.353,31.902 L63.261,31.902 C63.943,31.902 64.495,32.454 64.495,33.136 L64.495,37.120 L70.942,43.615 C71.108,43.745 71.256,43.892 71.383,44.058 L71.416,44.092 L71.410,44.092 C71.622,44.378 71.747,44.719 71.822,45.079 C71.873,45.218 71.894,45.363 71.894,45.509 C71.894,45.524 71.901,45.536 71.901,45.550 L71.901,45.561 C71.900,45.572 71.902,45.582 71.901,45.593 L71.901,64.046 C71.901,65.403 70.789,66.514 69.432,66.514 ZM67.788,64.046 L52.983,50.625 C52.745,50.440 52.391,50.316 52.036,50.316 C51.688,50.316 51.357,50.435 51.077,50.660 L45.707,55.642 C45.668,55.706 45.646,55.777 45.595,55.836 C45.470,55.977 45.320,56.081 45.158,56.151 L36.648,64.046 L67.788,64.046 ZM34.872,62.327 L42.776,54.995 L34.872,48.021 L34.872,62.327 ZM36.409,44.092 L36.352,44.092 L35.311,45.117 L39.809,49.086 L39.809,40.692 L36.409,44.092 ZM53.102,29.801 C52.868,29.568 52.558,29.439 52.228,29.439 C51.899,29.439 51.589,29.568 51.355,29.801 L48.867,31.902 L55.594,31.902 L53.102,29.801 ZM42.278,34.371 L42.278,51.264 L44.595,53.308 L49.479,48.778 C51.018,47.537 53.104,47.586 54.558,48.725 L59.816,53.491 L62.026,51.529 L62.026,34.371 L42.278,34.371 ZM67.041,43.082 L64.495,40.537 L64.495,49.338 L69.121,45.234 L67.003,43.082 L67.041,43.082 ZM69.432,48.259 L61.656,55.159 L69.432,62.207 L69.432,48.259 Z" class="cls-2"/>
  </g>
</svg>
