<svg xmlns="http://www.w3.org/2000/svg" xmlns:xlink="http://www.w3.org/1999/xlink" preserveAspectRatio="xMidYMid" width="47" height="48.094" viewBox="0 0 47 48.094">
  <defs>
    <style>
      .cls-1 {
        fill: #26a6ff;
      }

      .cls-1, .cls-2 {
        fill-rule: evenodd;
      }

      .cls-2 {
        fill: #6e6e6e;
      }
    </style>
  </defs>
  <g>
    <path d="M33.651,19.171 C33.801,19.266 33.958,19.347 34.122,19.412 C34.286,19.478 34.434,19.540 34.565,19.598 C34.894,19.745 35.179,19.890 35.419,20.036 C35.660,20.183 35.859,20.339 36.016,20.507 C36.173,20.675 36.286,20.865 36.356,21.077 C36.425,21.288 36.456,21.529 36.449,21.799 C36.434,22.522 36.208,23.104 35.770,23.546 C35.332,23.987 34.664,24.223 33.766,24.252 C33.438,24.266 33.129,24.228 32.841,24.137 C32.553,24.045 32.303,23.945 32.091,23.836 C31.901,23.741 31.750,23.633 31.637,23.513 C31.523,23.392 31.441,23.270 31.390,23.146 C31.339,23.022 31.315,22.901 31.319,22.785 C31.323,22.668 31.354,22.569 31.412,22.489 C31.514,22.329 31.637,22.239 31.779,22.221 C31.921,22.203 32.054,22.234 32.179,22.314 C32.288,22.387 32.403,22.465 32.524,22.549 C32.644,22.633 32.772,22.710 32.907,22.779 C33.042,22.849 33.184,22.905 33.334,22.949 C33.483,22.993 33.646,23.015 33.821,23.015 C33.967,23.015 34.111,22.989 34.253,22.938 C34.396,22.887 34.522,22.814 34.631,22.719 C34.741,22.624 34.828,22.505 34.894,22.363 C34.960,22.221 34.993,22.058 34.993,21.876 C34.993,21.701 34.952,21.547 34.872,21.416 C34.792,21.285 34.695,21.170 34.582,21.071 C34.469,20.973 34.345,20.890 34.210,20.825 C34.074,20.759 33.952,20.708 33.843,20.671 C33.536,20.562 33.250,20.443 32.983,20.316 C32.717,20.188 32.485,20.036 32.288,19.861 C32.091,19.686 31.934,19.478 31.817,19.237 C31.700,18.996 31.642,18.712 31.642,18.383 C31.642,18.033 31.713,17.724 31.856,17.458 C31.998,17.192 32.186,16.971 32.419,16.796 C32.653,16.620 32.918,16.489 33.213,16.401 C33.509,16.314 33.810,16.274 34.117,16.281 C34.460,16.288 34.777,16.343 35.069,16.445 C35.361,16.547 35.604,16.675 35.797,16.828 C35.991,16.982 36.122,17.148 36.191,17.327 C36.261,17.505 36.248,17.675 36.153,17.836 C36.102,17.916 36.038,17.980 35.961,18.027 C35.885,18.075 35.804,18.108 35.721,18.126 C35.637,18.144 35.554,18.146 35.474,18.131 C35.394,18.117 35.328,18.088 35.277,18.044 C35.204,17.993 35.120,17.936 35.025,17.874 C34.930,17.812 34.830,17.755 34.724,17.704 C34.618,17.653 34.505,17.609 34.385,17.573 C34.264,17.536 34.142,17.518 34.018,17.518 C33.879,17.518 33.755,17.546 33.646,17.600 C33.536,17.655 33.443,17.724 33.367,17.808 C33.290,17.892 33.230,17.987 33.186,18.093 C33.142,18.199 33.120,18.303 33.120,18.405 C33.120,18.573 33.171,18.719 33.273,18.843 C33.376,18.967 33.502,19.077 33.651,19.171 ZM30.044,24.197 C29.839,24.212 29.675,24.157 29.551,24.033 L26.649,20.978 L26.649,23.628 C26.649,23.774 26.591,23.905 26.474,24.022 C26.357,24.139 26.171,24.197 25.916,24.197 C25.660,24.197 25.482,24.135 25.379,24.011 C25.277,23.887 25.226,23.759 25.226,23.628 L25.226,17.179 C25.226,17.025 25.239,16.901 25.264,16.806 C25.290,16.712 25.336,16.639 25.401,16.587 C25.467,16.536 25.560,16.502 25.680,16.483 C25.801,16.465 25.956,16.456 26.146,16.456 L27.799,16.456 C28.230,16.456 28.611,16.491 28.943,16.560 C29.275,16.630 29.553,16.748 29.775,16.916 C29.998,17.084 30.166,17.308 30.279,17.589 C30.392,17.870 30.449,18.219 30.449,18.635 C30.449,19.270 30.305,19.756 30.016,20.091 C29.728,20.427 29.339,20.650 28.850,20.759 C28.777,20.774 28.704,20.788 28.631,20.803 C28.558,20.818 28.482,20.829 28.401,20.836 L30.547,22.949 C30.693,23.095 30.770,23.263 30.777,23.453 C30.784,23.642 30.715,23.810 30.569,23.956 C30.423,24.102 30.248,24.182 30.044,24.197 ZM28.713,19.451 C28.921,19.323 29.025,19.055 29.025,18.646 C29.025,18.456 28.993,18.299 28.927,18.175 C28.861,18.051 28.772,17.954 28.659,17.885 C28.545,17.816 28.414,17.768 28.264,17.743 C28.115,17.717 27.960,17.704 27.799,17.704 L26.649,17.704 L26.649,19.642 L27.799,19.642 C28.200,19.642 28.505,19.578 28.713,19.451 ZM23.584,20.825 C23.372,21.029 23.100,21.179 22.768,21.274 C22.436,21.369 22.036,21.416 21.569,21.416 L20.420,21.416 L20.420,23.628 C20.420,23.774 20.365,23.905 20.255,24.022 C20.146,24.139 19.963,24.197 19.708,24.197 C19.452,24.197 19.270,24.135 19.160,24.011 C19.051,23.887 18.996,23.759 18.996,23.628 L18.996,17.179 C18.996,17.025 19.009,16.901 19.034,16.806 C19.060,16.712 19.109,16.639 19.182,16.587 C19.255,16.536 19.359,16.502 19.494,16.483 C19.629,16.465 19.806,16.456 20.025,16.456 L21.569,16.456 C22.051,16.456 22.458,16.496 22.790,16.577 C23.122,16.657 23.394,16.792 23.606,16.982 C23.817,17.172 23.971,17.422 24.066,17.732 C24.160,18.042 24.208,18.423 24.208,18.876 C24.208,19.328 24.157,19.715 24.055,20.036 C23.952,20.358 23.795,20.620 23.584,20.825 ZM22.692,18.296 C22.629,18.142 22.544,18.020 22.434,17.929 C22.325,17.838 22.197,17.775 22.051,17.743 C21.905,17.710 21.744,17.693 21.569,17.693 L20.420,17.693 L20.420,20.190 L21.569,20.190 C22.036,20.190 22.356,20.088 22.527,19.883 C22.699,19.679 22.785,19.347 22.785,18.887 C22.785,18.646 22.753,18.449 22.692,18.296 ZM17.042,23.272 C16.783,23.589 16.449,23.841 16.040,24.027 C15.631,24.213 15.131,24.307 14.540,24.307 C13.963,24.307 13.445,24.212 12.985,24.022 C12.525,23.832 12.133,23.564 11.808,23.217 C11.483,22.871 11.235,22.453 11.064,21.963 C10.892,21.475 10.806,20.927 10.806,20.321 C10.806,19.745 10.888,19.208 11.053,18.712 C11.217,18.215 11.456,17.785 11.770,17.420 C12.084,17.055 12.469,16.766 12.925,16.555 C13.381,16.343 13.901,16.237 14.485,16.237 C14.821,16.237 15.135,16.264 15.427,16.319 C15.719,16.374 16.029,16.496 16.357,16.686 C16.555,16.810 16.737,16.943 16.905,17.086 C17.073,17.228 17.208,17.370 17.310,17.513 C17.412,17.655 17.469,17.794 17.480,17.929 C17.491,18.064 17.431,18.179 17.299,18.274 C17.233,18.332 17.155,18.383 17.064,18.427 C16.972,18.471 16.876,18.496 16.774,18.504 C16.671,18.511 16.569,18.500 16.467,18.471 C16.365,18.442 16.270,18.383 16.182,18.296 C15.890,17.982 15.615,17.768 15.356,17.655 C15.096,17.542 14.792,17.485 14.441,17.485 C14.135,17.485 13.846,17.551 13.576,17.682 C13.306,17.814 13.073,18.000 12.876,18.241 C12.679,18.482 12.522,18.774 12.405,19.117 C12.288,19.460 12.230,19.843 12.230,20.266 C12.230,20.697 12.286,21.084 12.399,21.427 C12.513,21.770 12.671,22.062 12.876,22.303 C13.080,22.544 13.325,22.730 13.609,22.861 C13.894,22.993 14.208,23.058 14.551,23.058 C14.799,23.058 15.031,23.009 15.246,22.911 C15.461,22.812 15.651,22.677 15.816,22.505 C15.980,22.334 16.109,22.130 16.204,21.892 C16.299,21.655 16.347,21.394 16.347,21.109 L15.175,21.109 C14.912,21.109 14.722,21.064 14.606,20.973 C14.489,20.881 14.430,20.719 14.430,20.485 C14.430,20.252 14.492,20.084 14.617,19.982 C14.741,19.880 14.930,19.828 15.186,19.828 L17.014,19.828 C17.314,19.828 17.514,19.905 17.617,20.058 C17.719,20.212 17.770,20.478 17.770,20.858 C17.770,21.317 17.713,21.755 17.600,22.171 C17.487,22.588 17.301,22.954 17.042,23.272 ZM14.290,36.662 C14.290,38.211 13.034,39.467 11.485,39.467 C9.936,39.467 8.681,38.211 8.681,36.662 C8.681,35.114 9.936,33.858 11.485,33.858 C13.034,33.858 14.290,35.114 14.290,36.662 Z" class="cls-1"/>
    <path d="M43.013,48.088 L4.000,48.088 C1.791,48.088 0.000,46.297 0.000,44.088 L0.000,4.015 C0.000,1.806 1.791,0.015 4.000,0.015 L43.013,0.015 C45.222,0.015 47.013,1.806 47.013,4.015 L47.013,44.088 C47.013,46.297 45.222,48.088 43.013,48.088 ZM40.607,3.067 L6.438,3.067 C2.862,3.067 2.948,3.228 2.948,6.803 L2.948,40.710 C2.948,44.286 3.029,45.242 6.604,45.242 L40.607,45.242 C44.183,45.242 44.031,44.286 44.031,40.710 L44.031,7.343 C44.031,3.767 44.183,3.067 40.607,3.067 ZM33.412,9.990 L13.057,9.990 C12.301,9.990 11.688,9.376 11.688,8.620 L11.688,8.609 C11.688,7.853 12.301,7.240 13.057,7.240 L33.412,7.240 C34.168,7.240 34.781,7.853 34.781,8.609 L34.781,8.620 C34.781,9.376 34.168,9.990 33.412,9.990 Z" class="cls-2"/>
  </g>
</svg>
