<svg xmlns="http://www.w3.org/2000/svg" xmlns:xlink="http://www.w3.org/1999/xlink" preserveAspectRatio="xMidYMid" width="148.594" height="42.781" viewBox="0 0 148.594 42.781">
  <defs>
    <style>
      .cls-1 {
        fill: #e9f6ff;
        stroke: #26a6ff;
        stroke-linejoin: round;
        stroke-width: 3px;
      }

      .cls-1, .cls-2, .cls-3, .cls-4 {
        fill-rule: evenodd;
      }

      .cls-2 {
        fill: #dbeefb;
      }

      .cls-3 {
        fill: #26a6ff;
      }

      .cls-4 {
        fill: #517188;
        filter: url(#color-overlay-1);
      }
    </style>

    <filter id="color-overlay-1" filterUnits="userSpaceOnUse">
      <feFlood flood-color="#26a6ff"/>
      <feComposite operator="in" in2="SourceGraphic"/>
      <feBlend in2="SourceGraphic" result="solidFill"/>
    </filter>
  </defs>
  <g>
    <path d="M32.283,13.983 C44.891,13.983 52.489,22.720 52.489,30.647 C52.489,38.573 43.442,42.688 32.283,42.688 C21.123,42.688 12.076,38.573 12.076,30.647 C12.076,22.720 19.890,13.983 32.283,13.983 Z" class="cls-1"/>
    <path d="M25.588,10.592 C36.786,10.592 43.533,17.636 43.533,24.027 C43.533,30.418 35.499,33.736 25.588,33.736 C15.677,33.736 7.643,30.418 7.643,24.027 C7.643,17.636 14.582,10.592 25.588,10.592 Z" class="cls-2"/>
    <path d="M52.343,10.991 C52.365,11.563 51.918,12.045 51.346,12.067 C50.774,12.089 50.292,11.643 50.270,11.070 L50.257,10.724 C50.068,5.764 45.894,1.898 40.934,2.087 C40.934,2.087 40.934,2.087 40.934,2.087 L40.934,2.087 L40.589,2.100 C40.017,2.122 39.535,1.676 39.513,1.104 C39.491,0.532 39.938,0.050 40.510,0.028 L41.201,0.001 C41.242,-0.000 41.278,0.017 41.318,0.020 C47.063,0.038 51.836,4.462 52.290,10.190 C52.296,10.228 52.315,10.261 52.317,10.300 L52.343,10.991 ZM40.641,3.483 L40.987,3.469 L40.987,3.469 C40.988,3.469 40.990,3.469 40.992,3.469 L41.332,3.456 C41.373,3.454 41.408,3.472 41.447,3.475 C45.213,3.556 48.314,6.399 48.785,10.114 C48.823,10.215 48.858,10.319 48.862,10.432 L48.889,11.123 C48.910,11.696 48.464,12.177 47.892,12.199 C47.319,12.221 46.838,11.775 46.816,11.203 L46.803,10.857 L46.803,10.857 C46.687,7.805 44.119,5.426 41.067,5.542 L40.720,5.555 C40.148,5.576 39.666,5.130 39.645,4.558 C39.623,3.986 40.069,3.504 40.641,3.483 Z" class="cls-3"/>
    <g>
      <path d="M18.768,18.429 C20.955,18.975 22.493,20.353 22.205,21.508 C21.917,22.663 19.911,23.156 17.724,22.610 C15.537,22.064 13.998,20.685 14.287,19.531 C14.575,18.376 16.581,17.883 18.768,18.429 Z" class="cls-3"/>
      <path d="M32.061,18.429 C29.875,18.975 28.336,20.353 28.624,21.508 C28.912,22.663 30.919,23.156 33.105,22.610 C35.292,22.064 36.831,20.685 36.543,19.531 C36.254,18.376 34.248,17.883 32.061,18.429 Z" class="cls-3"/>
    </g>
    <path d="M146.281,28.966 C145.411,29.111 144.521,29.194 143.713,29.194 C142.553,29.194 141.435,28.966 140.565,28.324 C139.613,27.516 139.012,25.570 139.012,23.664 C139.012,21.718 139.571,19.709 140.793,18.798 C141.497,18.280 142.367,18.115 143.299,18.115 C143.982,18.115 144.541,18.197 145.100,18.239 C145.307,18.280 145.515,18.301 145.701,18.322 L145.701,14.636 L147.109,14.636 L147.109,28.966 L146.281,28.966 ZM145.701,19.751 C145.452,19.730 145.204,19.688 144.955,19.647 C144.376,19.606 143.754,19.523 143.299,19.523 C142.677,19.523 142.056,19.647 141.621,19.937 C140.793,20.579 140.420,22.111 140.420,23.664 C140.420,25.238 140.772,26.750 141.394,27.226 C141.973,27.661 142.781,27.785 143.713,27.785 C144.376,27.785 145.059,27.723 145.701,27.640 L145.701,19.751 ZM134.640,28.448 C133.646,28.821 132.259,29.318 131.016,29.318 C129.318,29.318 127.910,28.572 127.910,25.880 L127.910,18.570 L129.318,18.570 L129.318,25.880 C129.318,27.454 130.084,27.910 131.016,27.910 C132.259,27.910 133.771,27.309 134.620,26.936 L134.640,26.936 L134.640,18.570 L136.048,18.570 L136.048,29.194 L134.640,29.194 L134.640,28.448 ZM119.831,29.442 C118.113,29.359 116.870,28.697 116.290,27.350 C115.918,26.419 115.710,25.135 115.710,23.871 C115.710,22.650 115.897,21.407 116.290,20.455 C117.036,18.798 118.775,18.280 120.453,18.301 C122.151,18.363 123.373,19.046 123.973,20.413 C124.346,21.345 124.574,22.608 124.574,23.892 C124.574,25.114 124.367,26.356 123.973,27.288 C123.248,28.966 121.488,29.463 119.831,29.442 ZM122.668,20.931 L122.668,20.952 C122.337,20.165 121.530,19.730 120.411,19.709 C119.231,19.688 118.030,19.999 117.595,21.014 L117.595,20.993 C117.264,21.759 117.119,22.795 117.119,23.871 C117.119,24.969 117.284,26.067 117.595,26.812 L117.595,26.791 C117.926,27.578 118.734,27.972 119.873,28.034 C120.991,28.055 122.192,27.640 122.668,26.709 C122.979,25.963 123.165,24.886 123.165,23.892 C123.165,22.795 122.979,21.718 122.668,20.931 ZM110.781,14.511 L112.189,14.511 L112.189,29.049 L110.781,29.049 L110.781,14.511 ZM104.980,15.982 C103.220,15.982 101.564,16.375 100.984,17.866 C100.590,19.005 100.383,20.517 100.383,21.966 C100.383,23.582 100.611,25.135 101.087,26.232 C101.646,27.454 103.303,27.723 105.063,27.723 C105.912,27.723 106.720,27.661 107.528,27.599 L107.652,29.007 C106.823,29.069 105.912,29.131 105.063,29.131 C102.868,29.131 100.694,28.593 99.803,26.791 C99.286,25.549 98.954,23.664 98.954,21.966 C98.954,20.310 99.182,18.632 99.658,17.369 C100.487,15.070 102.661,14.573 104.980,14.573 C105.933,14.573 106.865,14.636 107.755,14.718 L107.631,16.127 C106.761,16.044 105.829,15.982 104.980,15.982 ZM88.452,29.152 L88.452,28.717 C87.562,29.090 86.402,29.401 85.408,29.401 C84.683,29.401 84.000,29.256 83.461,28.841 C82.530,28.137 82.136,27.143 82.136,26.170 C82.136,24.638 83.172,23.105 84.559,22.774 C85.594,22.567 86.630,22.505 87.458,22.505 C87.789,22.505 88.142,22.505 88.473,22.525 L88.473,21.345 C88.494,19.999 87.355,19.626 85.946,19.626 C84.994,19.626 83.979,19.771 83.006,19.916 L82.778,18.549 C83.855,18.363 84.994,18.218 85.946,18.218 C88.162,18.218 89.922,18.901 89.881,21.345 C89.881,23.934 89.860,26.543 89.860,29.152 L88.452,29.152 ZM88.452,23.934 C88.142,23.934 87.831,23.913 87.458,23.913 C86.671,23.913 85.781,23.954 84.870,24.161 C84.103,24.327 83.544,25.238 83.544,26.170 C83.544,26.729 83.793,27.330 84.290,27.744 C84.538,27.930 84.952,27.992 85.408,27.992 C86.464,27.992 87.707,27.578 88.452,27.164 L88.452,23.934 ZM75.280,29.276 L71.407,18.881 L72.732,18.384 L75.839,26.729 L78.945,18.342 L80.270,18.839 L76.439,29.276 L75.280,29.276 ZM62.501,25.528 C62.521,27.102 63.432,27.868 64.613,27.868 L69.065,27.868 L69.065,29.276 L64.613,29.276 C62.646,29.276 61.154,28.055 61.092,25.570 L61.092,18.612 C61.030,15.961 62.521,14.470 64.737,14.470 L69.148,14.470 L69.148,15.878 L64.737,15.878 C63.391,15.878 62.480,16.851 62.501,18.591 L62.501,20.993 L69.334,20.993 L69.334,22.401 L62.501,22.401 L62.501,25.528 Z" class="cls-4"/>
  </g>
</svg>
