<svg xmlns="http://www.w3.org/2000/svg" xmlns:xlink="http://www.w3.org/1999/xlink" preserveAspectRatio="xMidYMid" width="49.875" height="36.875" viewBox="0 0 49.875 36.875">
  <defs>
    <style>
      .cls-1 {
        fill: #26a6ff;
      }

      .cls-1, .cls-2 {
        fill-rule: evenodd;
      }

      .cls-2 {
        fill: #6e6e6e;
      }
    </style>
  </defs>
  <g>
    <path d="M33.976,30.657 L9.923,30.657 C7.714,30.657 5.923,28.867 5.923,26.657 L5.923,10.026 C5.923,7.817 7.714,6.026 9.923,6.026 L33.976,6.026 C36.185,6.026 37.976,7.817 37.976,10.026 L37.976,26.657 C37.976,28.867 36.185,30.657 33.976,30.657 ZM35.076,12.352 C35.076,9.352 35.204,8.631 32.203,8.631 L11.909,8.631 C8.908,8.631 8.841,8.899 8.841,11.900 L8.841,24.119 C8.841,27.119 8.908,27.922 11.909,27.922 L31.990,27.922 C34.991,27.922 35.076,27.119 35.076,24.119 L35.076,12.352 Z" class="cls-1"/>
    <path d="M46.771,36.881 L3.198,36.835 C1.432,36.835 -0.000,34.986 -0.000,33.220 L-0.000,3.854 C-0.000,2.088 1.432,-0.010 3.198,-0.010 L46.771,-0.010 C48.537,-0.010 49.878,2.088 49.878,3.854 L49.878,33.637 C49.878,35.403 48.537,36.881 46.771,36.881 ZM44.732,2.916 L6.153,2.916 C3.152,2.916 2.993,3.142 2.993,6.143 L2.993,30.042 C2.993,33.042 3.152,33.982 6.153,33.982 L44.149,33.936 C47.150,33.936 47.022,33.042 47.022,30.042 L47.022,6.596 C47.022,3.595 47.733,2.916 44.732,2.916 ZM42.767,28.450 C41.552,28.450 40.567,27.465 40.567,26.250 C40.567,25.035 41.552,24.050 42.767,24.050 C43.982,24.050 44.967,25.035 44.967,26.250 C44.967,27.465 43.982,28.450 42.767,28.450 ZM42.855,20.309 C42.209,20.309 41.685,19.785 41.685,19.139 C41.685,18.493 42.209,17.970 42.855,17.970 C43.501,17.970 44.024,18.493 44.024,19.139 C44.024,19.785 43.501,20.309 42.855,20.309 ZM42.855,15.192 C42.209,15.192 41.685,14.668 41.685,14.023 C41.685,13.377 42.209,12.853 42.855,12.853 C43.501,12.853 44.024,13.377 44.024,14.023 C44.024,14.668 43.501,15.192 42.855,15.192 ZM42.855,10.075 C42.209,10.075 41.685,9.552 41.685,8.906 C41.685,8.260 42.209,7.736 42.855,7.736 C43.501,7.736 44.024,8.260 44.024,8.906 C44.024,9.552 43.501,10.075 42.855,10.075 ZM26.781,21.353 C26.985,21.762 27.829,22.851 27.829,22.851 C27.829,22.851 27.808,24.757 26.489,23.920 C25.171,23.083 24.900,20.887 24.900,20.887 C24.900,20.887 24.879,19.691 25.287,18.665 C25.694,17.640 26.469,17.464 26.469,15.964 C26.469,14.463 25.183,13.612 25.183,13.612 C24.827,12.125 26.026,11.999 26.714,12.453 C27.794,13.166 28.696,16.244 28.016,17.399 C26.951,19.205 26.580,20.949 26.781,21.353 ZM21.955,22.623 C22.159,23.032 23.003,24.121 23.003,24.121 C23.003,24.121 22.982,26.027 21.664,25.190 C20.345,24.353 20.074,22.157 20.074,22.157 C20.074,22.157 20.053,20.961 20.461,19.935 C20.869,18.910 21.643,18.734 21.643,17.234 C21.643,15.733 20.358,14.882 20.358,14.882 C20.001,13.395 21.200,13.268 21.888,13.723 C22.968,14.436 23.870,17.514 23.190,18.669 C22.126,20.475 21.754,22.219 21.955,22.623 ZM17.384,20.845 C17.587,21.254 18.431,22.343 18.431,22.343 C18.431,22.343 18.411,24.249 17.092,23.412 C15.773,22.575 15.502,20.379 15.502,20.379 C15.502,20.379 15.482,19.183 15.889,18.158 C16.297,17.132 17.072,16.957 17.072,15.456 C17.072,13.955 15.786,13.104 15.786,13.104 C15.430,11.617 16.628,11.491 17.316,11.945 C18.396,12.658 19.299,15.736 18.618,16.891 C17.554,18.697 17.182,20.441 17.384,20.845 Z" class="cls-2"/>
  </g>
</svg>
