<svg xmlns="http://www.w3.org/2000/svg" xmlns:xlink="http://www.w3.org/1999/xlink" preserveAspectRatio="xMidYMid" width="66.344" height="89.375" viewBox="0 0 66.344 89.375">
  <defs>
    <style>
      .cls-1 {
        fill: #6e6e6e;
        fill-rule: evenodd;
      }

      .cls-2 {
        fill: #26a6ff;
      }
    </style>
  </defs>
  <g>
    <path d="M50.343,89.375 L16.000,89.375 C7.163,89.375 -0.000,82.211 -0.000,73.375 L-0.000,16.000 C-0.000,7.163 7.163,-0.000 16.000,-0.000 L50.343,-0.000 C59.180,-0.000 66.343,7.163 66.343,16.000 L66.343,73.375 C66.343,82.211 59.180,89.375 50.343,89.375 ZM61.729,17.044 C61.729,8.903 57.356,4.606 49.214,4.606 L17.055,4.606 C8.914,4.606 4.617,8.442 4.617,16.583 L4.617,72.293 C4.617,80.435 8.684,84.731 16.825,84.731 L51.287,84.731 C59.429,84.731 61.729,77.671 61.729,69.529 L61.729,17.044 Z" class="cls-1"/>
    <ellipse cx="33.641" cy="70.485" rx="5.984" ry="5.984" class="cls-2"/>
  </g>
</svg>
