<svg xmlns="http://www.w3.org/2000/svg" xmlns:xlink="http://www.w3.org/1999/xlink" preserveAspectRatio="xMidYMid" width="101.219" height="101.219" viewBox="0 0 101.219 101.219">
  <defs>
    <style>
      .cls-1 {
        fill: #f1f1f1;
      }

      .cls-2 {
        fill: #26a6ff;
        fill-rule: evenodd;
      }
    </style>
  </defs>
  <g>
    <circle cx="50.609" cy="50.61" r="50.609" class="cls-1"/>
    <path d="M71.897,63.843 L67.843,63.843 L67.843,67.897 C67.843,68.644 67.238,69.249 66.491,69.249 C65.745,69.249 65.140,68.644 65.140,67.897 L65.140,63.843 L61.085,63.843 C60.339,63.843 59.734,63.238 59.734,62.491 C59.734,61.745 60.339,61.140 61.085,61.140 L65.140,61.140 L65.140,57.085 C65.140,56.339 65.745,55.734 66.491,55.734 C67.238,55.734 67.843,56.339 67.843,57.085 L67.843,61.140 L71.897,61.140 C72.644,61.140 73.249,61.745 73.249,62.491 C73.249,63.238 72.644,63.843 71.897,63.843 ZM58.767,54.200 L62.358,55.880 L61.690,58.578 L57.639,56.657 C56.784,56.263 56.194,55.454 56.083,54.519 C55.972,53.584 56.356,52.659 57.095,52.077 C59.995,49.793 61.076,44.820 61.076,42.220 L61.076,35.466 C61.076,32.580 56.208,28.714 51.618,28.714 C47.069,28.714 42.152,32.642 42.152,35.466 L42.152,42.220 C42.152,44.859 43.460,49.815 46.268,52.069 C46.999,52.655 47.374,53.577 47.259,54.507 C47.145,55.436 46.557,56.241 45.707,56.632 L33.836,62.233 C33.515,62.381 32.708,62.719 32.708,63.793 L32.708,66.536 L62.437,66.535 L62.437,69.238 L32.706,69.238 C31.215,69.238 30.005,68.028 30.005,66.536 L30.005,62.480 C30.005,60.982 32.706,59.778 32.706,59.778 L44.576,54.177 C40.796,51.142 39.449,45.171 39.449,42.220 L39.449,35.466 C39.449,30.992 45.650,26.011 51.618,26.011 C57.586,26.011 63.779,30.992 63.779,35.466 L63.779,42.220 C63.779,45.464 62.512,51.253 58.767,54.200 Z" class="cls-2"/>
  </g>
</svg>
