<svg xmlns="http://www.w3.org/2000/svg" xmlns:xlink="http://www.w3.org/1999/xlink" preserveAspectRatio="xMidYMid" width="49.063" height="49.031" viewBox="0 0 49.063 49.031">
  <defs>
    <style>
      .cls-1 {
        fill: #6e6e6e;
      }

      .cls-1, .cls-2 {
        fill-rule: evenodd;
      }

      .cls-2 {
        fill: #26a6ff;
      }
    </style>
  </defs>
  <g>
    <path d="M24.530,49.037 C10.989,49.037 0.011,38.057 0.011,24.513 C0.011,10.969 10.989,-0.010 24.530,-0.010 C38.071,-0.010 49.048,10.969 49.048,24.513 C49.048,38.057 38.071,49.037 24.530,49.037 ZM24.509,3.011 C12.565,3.011 2.882,12.697 2.882,24.645 C2.882,36.592 12.565,46.278 24.509,46.278 C36.453,46.278 46.135,36.592 46.135,24.645 C46.135,12.697 36.453,3.011 24.509,3.011 Z" class="cls-1"/>
    <path d="M24.497,42.414 C14.381,42.414 6.180,34.209 6.180,24.086 C6.180,20.553 7.197,17.264 8.929,14.465 L9.029,14.503 C9.223,14.052 9.668,13.736 10.188,13.736 C10.886,13.736 11.452,14.304 11.452,15.005 C11.452,15.145 11.415,15.272 11.373,15.398 L11.465,15.433 C9.807,17.923 8.837,20.912 8.837,24.129 C8.837,32.806 15.868,39.840 24.542,39.840 C33.217,39.840 40.248,32.806 40.248,24.129 C40.248,21.242 39.457,18.547 38.099,16.222 L38.099,15.973 C37.813,15.741 37.618,15.400 37.618,15.001 C37.618,14.300 38.184,13.731 38.882,13.731 C39.409,13.731 39.859,14.056 40.049,14.517 L40.085,14.497 C41.805,17.289 42.814,20.566 42.814,24.086 C42.814,34.209 34.614,42.414 24.497,42.414 ZM24.424,20.504 L24.369,20.504 C20.392,20.504 17.168,17.280 17.168,13.303 L17.168,6.909 C17.168,6.321 20.392,5.095 24.369,5.095 L24.424,5.095 C28.401,5.095 31.625,6.027 31.625,6.800 L31.625,13.303 C31.625,17.280 28.401,20.504 24.424,20.504 ZM29.511,8.359 C29.511,7.783 27.383,7.088 24.416,7.088 L24.376,7.088 C21.409,7.088 19.419,8.002 19.419,8.441 L19.350,13.211 C19.350,16.177 21.409,18.236 24.376,18.236 L24.416,18.236 C27.383,18.236 29.511,16.177 29.511,13.211 L29.511,8.359 Z" class="cls-2"/>
  </g>
</svg>
