<svg xmlns="http://www.w3.org/2000/svg" xmlns:xlink="http://www.w3.org/1999/xlink" preserveAspectRatio="xMidYMid" width="46.063" height="45.969" viewBox="0 0 46.063 45.969">
  <defs>
    <style>
      .cls-1 {
        fill: #26a6ff;
      }

      .cls-1, .cls-2 {
        fill-rule: evenodd;
      }

      .cls-2 {
        fill: #6e6e6e;
      }
    </style>
  </defs>
  <g>
    <path d="M27.000,36.344 L19.125,36.344 C17.468,36.344 16.125,35.001 16.125,33.344 L16.125,12.031 C16.125,10.374 17.468,9.031 19.125,9.031 L27.000,9.031 C28.657,9.031 30.000,10.374 30.000,12.031 L30.000,33.344 C30.000,35.001 28.657,36.344 27.000,36.344 ZM23.849,11.514 L22.474,11.514 C19.091,11.514 18.681,11.816 18.681,15.199 L18.681,29.443 C18.681,32.826 19.091,33.731 22.474,33.731 L23.609,33.731 C26.992,33.731 27.005,32.826 27.005,29.443 L27.005,15.709 C27.005,12.326 27.232,11.514 23.849,11.514 Z" class="cls-1"/>
    <path d="M42.062,45.969 L4.000,45.969 C1.791,45.969 -0.000,44.178 -0.000,41.969 L-0.000,4.000 C-0.000,1.791 1.791,-0.000 4.000,-0.000 L42.062,-0.000 C44.272,-0.000 46.063,1.791 46.063,4.000 L46.063,41.969 C46.063,44.178 44.272,45.969 42.062,45.969 ZM39.902,2.984 L6.434,2.984 C3.052,2.984 2.976,2.803 2.976,6.186 L2.976,39.067 C2.976,42.450 3.052,43.021 6.434,43.021 L39.902,43.021 C43.285,43.021 43.141,42.450 43.141,39.067 L43.141,6.696 C43.141,3.313 43.285,2.984 39.902,2.984 ZM22.969,18.187 C21.812,18.187 20.875,17.250 20.875,16.094 C20.875,14.937 21.812,14.000 22.969,14.000 C24.125,14.000 25.063,14.937 25.063,16.094 C25.063,17.250 24.125,18.187 22.969,18.187 ZM23.091,19.906 L23.097,19.906 C23.837,19.906 24.437,20.506 24.437,21.247 L24.437,27.347 C24.437,28.087 23.837,28.687 23.097,28.687 L23.091,28.687 C22.350,28.687 21.750,28.087 21.750,27.347 L21.750,21.247 C21.750,20.506 22.350,19.906 23.091,19.906 Z" class="cls-2"/>
  </g>
</svg>
