<?xml version="1.0" encoding="utf-8"?>
<!-- Generator: Adobe Illustrator 19.0.0, SVG Export Plug-In . SVG Version: 6.00 Build 0)  -->
<svg version="1.1" id="图层_1" xmlns="http://www.w3.org/2000/svg" xmlns:xlink="http://www.w3.org/1999/xlink" x="0px" y="0px"
	 viewBox="-1597 191.4 150.6 42.8" style="enable-background:new -1597 191.4 150.6 42.8;" xml:space="preserve">
<style type="text/css">
	.st0{fill:#E9F6FF;fill-opacity:0;stroke:#FFFFFF;stroke-width:3;stroke-linejoin:round;}
	.st1{fill:#FFFFFF;}
</style>
<path class="st0" d="M-1564.7,200.7c12.6,0,20.2,8.7,20.2,16.7c0,7.9-9,12-20.2,12c-11.2,0-20.2-4.1-20.2-12
	C-1584.9,209.5-1577.1,200.7-1564.7,200.7z"/>
<path class="st1" d="M-1538,204.1l0,0.3c0,0.6-0.4,1.1-1,1.1s-1.1-0.4-1.1-1l0-0.3c-0.2-5-4.4-8.8-9.3-8.6l0,0l0,0l-0.3,0
	c-0.6,0-1.1-0.4-1.1-1c0-0.6,0.4-1.1,1-1.1l0.7,0c0,0,0.1,0,0.1,0c5.7,0,10.5,4.4,11,10.2c0,0,0,0.1,0,0.1L-1538,204.1L-1538,204.1
	L-1538,204.1z M-1549.7,196.9l0.3,0l0,0c0,0,0,0,0,0l0.3,0c0,0,0.1,0,0.1,0c3.8,0.1,6.9,2.9,7.3,6.6c0,0.1,0.1,0.2,0.1,0.3l0,0.7
	c0,0.6-0.4,1.1-1,1.1c-0.6,0-1.1-0.4-1.1-1l0-0.3l0,0c-0.1-3.1-2.7-5.4-5.7-5.3l-0.3,0c-0.6,0-1.1-0.4-1.1-1
	C-1550.7,197.4-1550.3,196.9-1549.7,196.9z"/>
<g>
	<path class="st1" d="M-1571.6,211.8c2.2,0.5,3.7,1.9,3.4,3.1c-0.3,1.2-2.3,1.6-4.5,1.1c-2.2-0.5-3.7-1.9-3.4-3.1
		C-1575.8,211.8-1573.8,211.3-1571.6,211.8z"/>
	<path class="st1" d="M-1558.3,211.8c-2.2,0.5-3.7,1.9-3.4,3.1s2.3,1.6,4.5,1.1c2.2-0.5,3.7-1.9,3.4-3.1
		C-1554.1,211.8-1556.1,211.3-1558.3,211.8z"/>
</g>
<path class="st1" d="M-1448.7,222.6c-0.9,0.1-1.8,0.2-2.6,0.2c-1.2,0-2.3-0.2-3.1-0.9c-1-0.8-1.6-2.8-1.6-4.7c0-1.9,0.6-4,1.8-4.9
	c0.7-0.5,1.6-0.7,2.5-0.7c0.7,0,1.2,0.1,1.8,0.1c0.2,0,0.4,0.1,0.6,0.1v-3.7h1.4v14.3H-1448.7z M-1449.3,213.3
	c-0.2,0-0.5-0.1-0.7-0.1c-0.6,0-1.2-0.1-1.7-0.1c-0.6,0-1.2,0.1-1.7,0.4c-0.8,0.6-1.2,2.2-1.2,3.7c0,1.6,0.4,3.1,1,3.6
	c0.6,0.4,1.4,0.6,2.3,0.6c0.7,0,1.3-0.1,2-0.1V213.3z M-1460.4,222c-1,0.4-2.4,0.9-3.6,0.9c-1.7,0-3.1-0.7-3.1-3.4v-7.3h1.4v7.3
	c0,1.6,0.8,2,1.7,2c1.2,0,2.8-0.6,3.6-1h0v-8.4h1.4v10.6h-1.4V222z M-1475.2,223c-1.7-0.1-3-0.7-3.5-2.1c-0.4-0.9-0.6-2.2-0.6-3.5
	c0-1.2,0.2-2.5,0.6-3.4c0.7-1.7,2.5-2.2,4.2-2.2c1.7,0.1,2.9,0.7,3.5,2.1c0.4,0.9,0.6,2.2,0.6,3.5c0,1.2-0.2,2.5-0.6,3.4
	C-1471.8,222.6-1473.5,223-1475.2,223z M-1472.3,214.5L-1472.3,214.5c-0.3-0.8-1.1-1.2-2.3-1.2c-1.2,0-2.4,0.3-2.8,1.3v0
	c-0.3,0.8-0.5,1.8-0.5,2.9c0,1.1,0.2,2.2,0.5,2.9v0c0.3,0.8,1.1,1.2,2.3,1.2c1.1,0,2.3-0.4,2.8-1.3c0.3-0.7,0.5-1.8,0.5-2.8
	C-1471.8,216.4-1472,215.3-1472.3,214.5z M-1484.2,208.1h1.4v14.5h-1.4V208.1z M-1490,209.6c-1.8,0-3.4,0.4-4,1.9
	c-0.4,1.1-0.6,2.7-0.6,4.1c0,1.6,0.2,3.2,0.7,4.3c0.6,1.2,2.2,1.5,4,1.5c0.8,0,1.7-0.1,2.5-0.1l0.1,1.4c-0.8,0.1-1.7,0.1-2.6,0.1
	c-2.2,0-4.4-0.5-5.3-2.3c-0.5-1.2-0.8-3.1-0.8-4.8c0-1.7,0.2-3.3,0.7-4.6c0.8-2.3,3-2.8,5.3-2.8c1,0,1.9,0.1,2.8,0.1l-0.1,1.4
	C-1488.2,209.6-1489.2,209.6-1490,209.6z M-1506.5,222.7v-0.4c-0.9,0.4-2.1,0.7-3,0.7c-0.7,0-1.4-0.1-1.9-0.6
	c-0.9-0.7-1.3-1.7-1.3-2.7c0-1.5,1-3.1,2.4-3.4c1-0.2,2.1-0.3,2.9-0.3c0.3,0,0.7,0,1,0v-1.2c0-1.3-1.1-1.7-2.5-1.7
	c-1,0-2,0.1-2.9,0.3l-0.2-1.4c1.1-0.2,2.2-0.3,3.2-0.3c2.2,0,4,0.7,3.9,3.1c0,2.6,0,5.2,0,7.8H-1506.5z M-1506.5,217.5
	c-0.3,0-0.6,0-1,0c-0.8,0-1.7,0-2.6,0.2c-0.8,0.2-1.3,1.1-1.3,2c0,0.6,0.2,1.2,0.7,1.6c0.2,0.2,0.7,0.2,1.1,0.2c1.1,0,2.3-0.4,3-0.8
	V217.5z M-1519.7,222.9l-3.9-10.4l1.3-0.5l3.1,8.3l3.1-8.4l1.3,0.5l-3.8,10.4H-1519.7z M-1532.5,219.1c0,1.6,0.9,2.3,2.1,2.3h4.5
	v1.4h-4.5c-2,0-3.5-1.2-3.5-3.7v-7c-0.1-2.7,1.4-4.1,3.6-4.1h4.4v1.4h-4.4c-1.3,0-2.3,1-2.2,2.7v2.4h6.8v1.4h-6.8V219.1z"/>
</svg>
