<svg xmlns="http://www.w3.org/2000/svg" xmlns:xlink="http://www.w3.org/1999/xlink" preserveAspectRatio="xMidYMid" width="101.219" height="101.219" viewBox="0 0 101.219 101.219">
  <defs>
    <style>
      .cls-1 {
        fill: #f1f1f1;
      }

      .cls-2 {
        fill: #26a6ff;
        fill-rule: evenodd;
      }
    </style>
  </defs>
  <g>
    <circle cx="50.609" cy="50.61" r="50.609" class="cls-1"/>
    <path d="M70.475,62.446 C70.193,62.817 69.721,62.994 69.265,62.884 L63.306,61.517 L61.266,67.198 C61.109,67.637 60.707,67.943 60.241,67.980 C60.210,67.983 60.179,67.984 60.149,67.984 C59.717,67.984 59.317,67.750 59.107,67.367 L52.901,56.049 C52.499,56.087 52.093,56.111 51.681,56.111 C51.231,56.111 50.786,56.088 50.348,56.044 L44.275,67.358 C44.067,67.745 43.664,67.984 43.229,67.984 C43.200,67.984 43.171,67.983 43.141,67.980 C42.673,67.946 42.270,67.640 42.111,67.198 L40.072,61.517 L34.113,62.884 C33.658,62.990 33.182,62.815 32.900,62.443 C32.618,62.070 32.581,61.566 32.806,61.156 L39.789,48.421 C39.049,46.783 38.627,44.971 38.627,43.058 C38.627,35.849 44.471,30.006 51.681,30.006 C58.889,30.006 64.733,35.849 64.733,43.058 C64.733,44.927 64.333,46.701 63.625,48.309 L70.575,61.162 C70.796,61.573 70.758,62.075 70.475,62.446 ZM36.160,59.979 L40.568,58.968 C41.155,58.829 41.747,59.158 41.951,59.723 L43.445,63.884 L47.917,55.554 C45.188,54.734 42.845,53.040 41.191,50.803 L36.160,59.979 ZM51.681,32.390 C45.798,32.390 41.012,37.175 41.012,43.058 C41.012,48.940 45.798,53.726 51.681,53.726 C57.563,53.726 62.348,48.940 62.348,43.058 C62.348,37.175 57.563,32.390 51.681,32.390 ZM62.230,50.722 C60.554,53.025 58.151,54.758 55.351,55.578 L59.922,63.914 L61.426,59.723 C61.630,59.158 62.220,58.829 62.809,58.968 L67.238,59.983 L62.230,50.722 Z" class="cls-2"/>
  </g>
</svg>
