<svg xmlns="http://www.w3.org/2000/svg" xmlns:xlink="http://www.w3.org/1999/xlink" preserveAspectRatio="xMidYMid" width="101.22" height="101.219" viewBox="0 0 101.22 101.219">
  <defs>
    <style>
      .cls-1 {
        fill: #f1f1f1;
      }

      .cls-2 {
        fill: #26a6ff;
        fill-rule: evenodd;
      }
    </style>
  </defs>
  <g>
    <circle cx="50.61" cy="50.61" r="50.61" class="cls-1"/>
    <path d="M35.910,61.000 L65.410,61.000 C66.238,61.000 66.910,61.671 66.910,62.500 C66.910,63.328 66.238,64.000 65.410,64.000 L35.910,64.000 C35.081,64.000 34.410,63.328 34.410,62.500 C34.410,61.671 35.081,61.000 35.910,61.000 Z" class="cls-2"/>
    <path d="M67.160,50.666 C67.160,50.666 67.577,47.583 62.910,47.583 C62.730,47.583 62.552,47.590 62.374,47.599 C61.830,48.579 60.797,49.250 59.597,49.250 C58.900,49.250 58.260,49.019 57.735,48.639 C56.370,49.123 55.070,49.681 53.847,50.102 C53.414,51.349 52.242,52.250 50.847,52.250 C49.456,52.250 48.285,51.352 47.850,50.109 C46.222,49.490 44.575,48.558 43.155,47.948 C42.575,48.734 41.650,49.250 40.597,49.250 C39.599,49.250 38.718,48.781 38.134,48.062 C36.195,48.877 34.327,50.083 34.327,50.083 L32.910,47.666 C32.910,47.666 34.834,46.386 37.457,45.600 C37.682,44.060 38.995,42.875 40.597,42.875 C42.113,42.875 43.375,43.934 43.699,45.351 C45.368,45.869 46.441,46.843 48.104,47.464 C48.657,46.518 49.672,45.875 50.847,45.875 C52.099,45.875 53.171,46.603 53.693,47.652 C54.630,47.390 55.539,47.017 56.468,46.634 C56.434,46.448 56.410,46.258 56.410,46.062 C56.410,44.302 57.837,42.875 59.597,42.875 C60.987,42.875 62.156,43.769 62.593,45.009 C62.699,45.006 62.802,45.000 62.910,45.000 C67.910,45.000 69.910,49.333 69.910,49.333 L67.160,50.666 Z" class="cls-2"/>
  </g>
</svg>
