<svg xmlns="http://www.w3.org/2000/svg" xmlns:xlink="http://www.w3.org/1999/xlink" preserveAspectRatio="xMidYMid" width="42.844" height="50" viewBox="0 0 42.844 50">
  <defs>
    <style>
      .cls-1 {
        fill: #26a6ff;
      }

      .cls-1, .cls-2 {
        fill-rule: evenodd;
      }

      .cls-2 {
        fill: #6e6e6e;
      }
    </style>
  </defs>
  <g>
    <path d="M32.701,37.141 C32.755,37.286 32.794,37.439 32.794,37.602 L32.794,41.536 C32.794,42.266 32.201,42.859 31.471,42.859 L31.253,42.859 C30.523,42.859 29.930,42.266 29.930,41.536 L29.930,37.602 C29.930,37.522 29.962,37.452 29.976,37.376 C27.602,36.925 25.805,34.847 25.805,32.342 C25.805,29.509 28.102,27.212 30.936,27.212 C33.769,27.212 36.066,29.509 36.066,32.342 C36.066,34.553 34.661,36.420 32.701,37.141 ZM30.987,29.700 C29.556,29.700 28.396,30.860 28.396,32.291 C28.396,33.722 29.556,34.882 30.987,34.882 C32.418,34.882 33.578,33.722 33.578,32.291 C33.578,30.860 32.418,29.700 30.987,29.700 Z" class="cls-1"/>
    <path d="M38.932,50.150 L23.108,50.150 C20.956,50.150 18.962,48.405 18.962,46.253 L18.962,21.911 L4.851,21.911 C2.172,21.911 -0.000,19.739 -0.000,17.060 L-0.000,16.006 C-0.000,13.327 2.172,11.156 4.851,11.156 L18.962,11.156 L18.962,3.788 C18.962,1.636 20.956,-0.109 23.108,-0.109 L38.932,-0.109 C41.084,-0.109 42.780,1.636 42.780,3.788 L42.836,46.253 C42.836,48.405 41.084,50.150 38.932,50.150 ZM6.384,13.971 C4.341,13.971 2.686,14.313 2.686,16.355 C2.686,18.397 4.341,19.006 6.384,19.006 L24.839,19.006 C26.881,19.006 28.481,18.397 28.481,16.355 C28.481,14.313 26.826,13.971 24.783,13.971 L6.384,13.971 ZM36.448,2.882 L25.628,2.882 C21.972,2.882 21.889,2.921 21.889,6.578 L21.889,11.156 L26.068,11.156 C28.747,11.156 30.919,13.327 30.919,16.006 L30.919,17.060 C30.919,19.739 28.747,21.911 26.068,21.911 L21.889,21.911 L21.889,42.629 C21.889,46.285 21.972,47.430 25.628,47.430 L36.448,47.430 C40.105,47.430 39.949,46.285 39.949,42.629 L39.949,7.129 C39.949,3.473 40.105,2.882 36.448,2.882 Z" class="cls-2"/>
  </g>
</svg>
