<svg xmlns="http://www.w3.org/2000/svg" xmlns:xlink="http://www.w3.org/1999/xlink" preserveAspectRatio="xMidYMid" width="101.219" height="101.219" viewBox="0 0 101.219 101.219">
  <defs>
    <style>
      .cls-1 {
        fill: #f1f1f1;
      }

      .cls-2 {
        fill: #26a6ff;
        fill-rule: evenodd;
      }
    </style>
  </defs>
  <g>
    <ellipse cx="50.609" cy="50.61" rx="50.609" ry="50.609" class="cls-1"/>
    <path d="M69.688,47.500 C67.685,47.500 65.922,46.508 64.832,45.000 L37.188,45.000 C36.359,45.000 35.688,44.328 35.688,43.500 C35.688,42.671 36.359,42.000 37.188,42.000 L63.738,42.000 C63.724,41.832 63.688,41.671 63.688,41.500 C63.688,38.186 66.374,35.500 69.688,35.500 C73.002,35.500 75.688,38.186 75.688,41.500 C75.688,44.813 73.002,47.500 69.688,47.500 ZM69.938,38.000 C68.143,38.000 66.688,39.455 66.688,41.250 C66.688,43.045 68.143,44.500 69.938,44.500 C71.733,44.500 73.188,43.045 73.188,41.250 C73.188,39.455 71.733,38.000 69.938,38.000 ZM37.188,51.000 L66.688,51.000 C67.516,51.000 68.188,51.671 68.188,52.500 C68.188,53.328 67.516,54.000 66.688,54.000 L37.188,54.000 C36.359,54.000 35.688,53.328 35.688,52.500 C35.688,51.671 36.359,51.000 37.188,51.000 ZM37.188,60.000 L66.688,60.000 C67.516,60.000 68.188,60.671 68.188,61.500 C68.188,62.328 67.516,63.000 66.688,63.000 L37.188,63.000 C36.359,63.000 35.688,62.328 35.688,61.500 C35.688,60.671 36.359,60.000 37.188,60.000 Z" class="cls-2"/>
  </g>
</svg>
