<svg xmlns="http://www.w3.org/2000/svg" xmlns:xlink="http://www.w3.org/1999/xlink" preserveAspectRatio="xMidYMid" width="49.281" height="49.313" viewBox="0 0 49.281 49.313">
  <defs>
    <style>
      .cls-1 {
        fill: #6e6e6e;
      }

      .cls-1, .cls-2 {
        fill-rule: evenodd;
      }

      .cls-2 {
        fill: #26a6ff;
      }
    </style>
  </defs>
  <g>
    <path d="M24.640,49.309 C11.032,49.309 0.000,38.272 0.000,24.658 C0.000,11.044 11.032,0.007 24.640,0.007 C38.248,0.007 49.279,11.044 49.279,24.658 C49.279,38.272 38.248,49.309 24.640,49.309 ZM24.648,2.982 C12.720,2.982 3.050,12.655 3.050,24.588 C3.050,36.520 12.720,46.193 24.648,46.193 C36.577,46.193 46.247,36.520 46.247,24.588 C46.247,12.655 36.577,2.982 24.648,2.982 Z" class="cls-1"/>
    <path d="M37.412,28.890 L32.823,34.822 C32.361,35.419 31.503,35.528 30.906,35.067 L29.281,33.809 C28.684,33.347 28.575,32.489 29.036,31.893 L33.626,25.960 C34.088,25.364 34.946,25.254 35.542,25.716 L37.168,26.974 C37.764,27.435 37.874,28.293 37.412,28.890 ZM23.999,18.432 C22.676,18.432 21.604,17.359 21.604,16.036 L21.604,10.594 C21.604,9.271 22.676,8.198 23.999,8.198 C25.322,8.198 26.395,9.271 26.395,10.594 L26.395,16.036 C26.395,17.359 25.322,18.432 23.999,18.432 ZM18.128,35.067 C17.531,35.528 16.673,35.419 16.211,34.822 L11.622,28.890 C11.160,28.293 11.270,27.435 11.866,26.974 L13.492,25.716 C14.088,25.254 14.946,25.364 15.408,25.960 L19.998,31.893 C20.459,32.489 20.350,33.347 19.753,33.809 L18.128,35.067 Z" class="cls-2"/>
  </g>
</svg>
