<svg xmlns="http://www.w3.org/2000/svg" xmlns:xlink="http://www.w3.org/1999/xlink" preserveAspectRatio="xMidYMid" width="100.969" height="63.968" viewBox="0 0 100.969 63.968">
  <defs>
    <style>
      .cls-1 {
        fill: #6e6e6e;
      }

      .cls-1, .cls-2 {
        fill-rule: evenodd;
      }

      .cls-2 {
        fill: #26a6ff;
      }
    </style>
  </defs>
  <g>
    <path d="M50.501,5.933 C58.227,5.933 65.073,11.137 67.149,18.588 L69.151,24.060 L75.059,23.540 C76.171,23.337 77.195,23.238 78.187,23.238 C87.728,23.238 95.491,31.001 95.491,40.544 C95.491,50.086 87.728,58.463 78.187,58.463 L22.815,58.463 C13.275,58.463 5.512,50.086 5.512,40.544 C5.512,31.001 13.275,23.238 22.815,23.238 C23.807,23.238 24.831,23.337 25.943,23.540 L32.158,24.367 L33.853,18.588 C35.930,11.137 42.775,5.933 50.501,5.933 M50.493,0.013 C39.676,0.013 30.587,7.312 27.820,17.246 C26.437,16.994 25.021,16.843 23.568,16.843 C10.556,16.843 0.009,27.392 0.009,40.405 C0.009,53.418 10.556,63.967 23.568,63.967 L77.418,63.967 C90.431,63.967 100.978,53.418 100.978,40.405 C100.978,27.392 90.431,16.843 77.418,16.843 C75.964,16.843 74.549,16.994 73.167,17.246 C70.400,7.312 61.308,0.013 50.493,0.013 L50.493,0.013 Z" class="cls-1"/>
    <path d="M85.258,49.701 C84.891,50.202 84.306,50.531 83.641,50.531 C82.528,50.531 81.625,49.621 81.625,48.500 C81.625,47.434 82.442,46.570 83.477,46.485 C84.620,45.154 86.186,42.777 86.317,39.629 C86.508,35.042 78.557,31.891 73.661,32.401 C73.389,32.540 73.085,32.625 72.758,32.625 C71.645,32.625 70.743,31.716 70.743,30.595 C70.743,29.658 71.377,28.877 72.234,28.644 C72.253,28.497 72.267,28.404 72.267,28.404 C72.267,28.404 90.218,27.767 90.002,40.213 C89.880,47.268 85.585,49.539 85.258,49.701 Z" class="cls-2"/>
  </g>
</svg>
