<svg xmlns="http://www.w3.org/2000/svg" xmlns:xlink="http://www.w3.org/1999/xlink" preserveAspectRatio="xMidYMid" width="83.844" height="89.38" viewBox="0 0 83.844 89.38">
  <defs>
    <style>
      .cls-1 {
        fill: #fff;
        fill-rule: evenodd;
      }
    </style>
  </defs>
  <path d="M67.844,89.375 L16.000,89.375 C7.163,89.375 -0.000,82.211 -0.000,73.375 L-0.000,16.000 C-0.000,7.163 7.163,-0.000 16.000,-0.000 L67.844,-0.000 C76.680,-0.000 83.844,7.163 83.844,16.000 L83.844,73.375 C83.844,82.211 76.680,89.375 67.844,89.375 ZM79.223,17.044 C79.223,8.903 74.849,4.606 66.708,4.606 L17.044,4.606 C8.903,4.606 4.606,8.442 4.606,16.583 L4.606,72.294 C4.606,80.434 8.673,84.731 16.814,84.731 L68.781,84.731 C76.922,84.731 79.223,77.671 79.223,69.530 L79.223,17.044 ZM55.766,71.406 C50.924,71.406 47.000,67.489 47.000,62.656 C47.000,58.641 49.713,55.266 53.406,54.236 L53.406,44.311 L47.965,44.311 C47.330,44.311 46.767,44.026 46.379,43.582 C45.637,43.201 45.125,42.437 45.125,41.547 L45.125,25.515 C45.125,24.247 46.153,23.219 47.422,23.219 C48.690,23.219 49.719,24.247 49.719,25.515 L49.719,39.527 L56.084,39.527 C57.253,39.527 58.200,40.658 58.200,41.827 L58.200,42.195 C58.200,42.591 58.085,42.957 57.896,43.274 C57.957,43.481 58.000,43.695 58.000,43.922 L58.000,54.204 C61.757,55.192 64.531,58.596 64.531,62.656 C64.531,67.489 60.607,71.406 55.766,71.406 ZM56.000,58.500 C53.584,58.500 51.625,60.459 51.625,62.875 C51.625,65.291 53.584,67.250 56.000,67.250 C58.416,67.250 60.375,65.291 60.375,62.875 C60.375,60.459 58.416,58.500 56.000,58.500 ZM31.891,69.562 C28.137,69.562 25.094,66.519 25.094,62.765 C25.094,59.537 27.350,56.847 30.368,56.154 L30.368,50.761 L24.472,50.761 C23.594,50.761 22.842,50.226 22.521,49.465 C22.247,49.108 22.077,48.666 22.077,48.181 L22.077,31.770 C22.077,30.602 23.024,29.654 24.193,29.654 L24.561,29.654 C25.730,29.654 26.678,30.602 26.678,31.770 L26.678,45.976 L32.591,45.976 C32.798,45.976 32.993,46.022 33.182,46.086 C34.193,46.245 34.969,47.114 34.969,48.170 L34.969,56.738 C37.167,57.864 38.687,60.126 38.687,62.765 C38.687,66.519 35.644,69.562 31.891,69.562 ZM32.078,60.062 C30.482,60.062 29.187,61.356 29.187,62.953 C29.187,64.549 30.482,65.844 32.078,65.844 C33.675,65.844 34.969,64.549 34.969,62.953 C34.969,61.356 33.675,60.062 32.078,60.062 Z" class="cls-1"/>
</svg>
