<svg xmlns="http://www.w3.org/2000/svg" xmlns:xlink="http://www.w3.org/1999/xlink" preserveAspectRatio="xMidYMid" width="100.969" height="63.966" viewBox="0 0 100.969 63.966">
  <defs>
    <style>
      .cls-1 {
        fill: #fff;
        fill-rule: evenodd;
      }
    </style>
  </defs>
  <path d="M77.418,63.967 L23.568,63.967 C10.556,63.967 0.009,53.418 0.009,40.405 C0.009,27.392 10.556,16.843 23.568,16.843 C25.021,16.843 26.437,16.994 27.819,17.246 C30.587,7.312 39.676,0.013 50.493,0.013 C61.308,0.013 70.399,7.312 73.167,17.246 C74.549,16.994 75.964,16.843 77.418,16.843 C90.430,16.843 100.978,27.392 100.978,40.405 C100.978,53.418 90.430,63.967 77.418,63.967 ZM78.187,23.238 C77.195,23.238 76.171,23.337 75.059,23.540 L69.151,24.060 L67.149,18.588 C65.073,11.137 58.227,5.933 50.501,5.933 C42.775,5.933 35.930,11.137 33.853,18.588 L32.158,24.367 L25.943,23.540 C24.831,23.337 23.807,23.238 22.815,23.238 C13.274,23.238 5.511,31.001 5.511,40.544 C5.511,50.086 13.274,58.463 22.815,58.463 L78.187,58.463 C87.728,58.463 95.491,50.086 95.491,40.544 C95.491,31.001 87.728,23.238 78.187,23.238 ZM85.226,49.717 L82.278,47.690 C82.278,47.690 86.108,44.629 86.317,39.629 C86.522,34.685 77.264,31.402 72.574,32.581 C71.604,32.824 72.267,28.404 72.267,28.404 C72.267,28.404 90.218,27.767 90.002,40.212 C89.875,47.546 85.226,49.717 85.226,49.717 Z" class="cls-1"/>
</svg>
