<?xml version="1.0" encoding="utf-8"?>
<!-- Generator: Adobe Illustrator 19.0.0, SVG Export Plug-In . SVG Version: 6.00 Build 0)  -->
<svg version="1.1" id="图层_1" xmlns="http://www.w3.org/2000/svg" xmlns:xlink="http://www.w3.org/1999/xlink" x="0px" y="0px"
	 viewBox="-1598 191.4 148.6 42.8" style="enable-background:new -1598 191.4 148.6 42.8;" xml:space="preserve">
<style type="text/css">
	.st0{fill:#E9F6FF;stroke:#26A6FF;stroke-width:3;stroke-linejoin:round;}
	.st1{fill:#DBEEFB;}
	.st2{fill:#26A6FF;}
</style>
<path class="st0" d="M-1565.7,200.7c12.6,0,20.2,8.7,20.2,16.7c0,7.9-9,12-20.2,12c-11.2,0-20.2-4.1-20.2-12
	C-1585.9,209.4-1578.1,200.7-1565.7,200.7z"/>
<path class="st1" d="M-1565.7,203.6c11.2,0,17.9,7,17.9,13.4c0,6.4-8,9.7-17.9,9.7s-17.9-3.3-17.9-9.7
	C-1583.6,210.7-1576.7,203.6-1565.7,203.6z"/>
<path class="st2" d="M-1539.2,205.2c0,0.6-0.4,1.1-1,1.1c-0.6,0-1.1-0.4-1.1-1l0-0.3c-0.2-5-4.4-8.8-9.3-8.6l0,0l0,0l-0.3,0
	c-0.6,0-1.1-0.4-1.1-1c0-0.6,0.4-1.1,1-1.1l0.7,0c0,0,0.1,0,0.1,0c5.7,0,10.5,4.4,11,10.2c0,0,0,0.1,0,0.1L-1539.2,205.2z
	 M-1550.9,197.7l0.3,0l0,0c0,0,0,0,0,0l0.3,0c0,0,0.1,0,0.1,0c3.8,0.1,6.9,2.9,7.3,6.6c0,0.1,0.1,0.2,0.1,0.3l0,0.7
	c0,0.6-0.4,1.1-1,1.1c-0.6,0-1.1-0.4-1.1-1l0-0.3l0,0c-0.1-3.1-2.7-5.4-5.7-5.3l-0.3,0c-0.6,0-1.1-0.4-1.1-1
	C-1551.9,198.2-1551.4,197.7-1550.9,197.7z"/>
<g>
	<path class="st2" d="M-1572.5,211.8c2.2,0.5,3.7,1.9,3.4,3.1c-0.3,1.2-2.3,1.6-4.5,1.1s-3.7-1.9-3.4-3.1
		C-1576.7,211.8-1574.7,211.3-1572.5,211.8z"/>
	<path class="st2" d="M-1559.2,211.8c-2.2,0.5-3.7,1.9-3.4,3.1c0.3,1.2,2.3,1.6,4.5,1.1c2.2-0.5,3.7-1.9,3.4-3.1
		C-1555,211.8-1557,211.3-1559.2,211.8z"/>
</g>
<path class="st2" d="M-1451.7,220.4c-0.9,0.1-1.8,0.2-2.6,0.2c-1.2,0-2.3-0.2-3.1-0.9c-1-0.8-1.6-2.8-1.6-4.7c0-1.9,0.6-4,1.8-4.9
	c0.7-0.5,1.6-0.7,2.5-0.7c0.7,0,1.2,0.1,1.8,0.1c0.2,0,0.4,0.1,0.6,0.1v-3.7h1.4v14.3H-1451.7z M-1452.3,211.2
	c-0.2,0-0.5-0.1-0.7-0.1c-0.6,0-1.2-0.1-1.7-0.1c-0.6,0-1.2,0.1-1.7,0.4c-0.8,0.6-1.2,2.2-1.2,3.7c0,1.6,0.4,3.1,1,3.6
	c0.6,0.4,1.4,0.6,2.3,0.6c0.7,0,1.3-0.1,2-0.1V211.2z M-1463.4,219.9c-1,0.4-2.4,0.9-3.6,0.9c-1.7,0-3.1-0.7-3.1-3.4V210h1.4v7.3
	c0,1.6,0.8,2,1.7,2c1.2,0,2.8-0.6,3.6-1h0V210h1.4v10.6h-1.4V219.9z M-1478.2,220.9c-1.7-0.1-3-0.7-3.5-2.1
	c-0.4-0.9-0.6-2.2-0.6-3.5c0-1.2,0.2-2.5,0.6-3.4c0.7-1.7,2.5-2.2,4.2-2.2c1.7,0.1,2.9,0.7,3.5,2.1c0.4,0.9,0.6,2.2,0.6,3.5
	c0,1.2-0.2,2.5-0.6,3.4C-1474.8,220.4-1476.5,220.9-1478.2,220.9z M-1475.3,212.3L-1475.3,212.3c-0.3-0.8-1.1-1.2-2.3-1.2
	c-1.2,0-2.4,0.3-2.8,1.3v0c-0.3,0.8-0.5,1.8-0.5,2.9c0,1.1,0.2,2.2,0.5,2.9v0c0.3,0.8,1.1,1.2,2.3,1.2c1.1,0,2.3-0.4,2.8-1.3
	c0.3-0.7,0.5-1.8,0.5-2.8C-1474.8,214.2-1475,213.1-1475.3,212.3z M-1487.2,205.9h1.4v14.5h-1.4V205.9z M-1493,207.4
	c-1.8,0-3.4,0.4-4,1.9c-0.4,1.1-0.6,2.7-0.6,4.1c0,1.6,0.2,3.2,0.7,4.3c0.6,1.2,2.2,1.5,4,1.5c0.8,0,1.7-0.1,2.5-0.1l0.1,1.4
	c-0.8,0.1-1.7,0.1-2.6,0.1c-2.2,0-4.4-0.5-5.3-2.3c-0.5-1.2-0.8-3.1-0.8-4.8c0-1.7,0.2-3.3,0.7-4.6c0.8-2.3,3-2.8,5.3-2.8
	c1,0,1.9,0.1,2.8,0.1l-0.1,1.4C-1491.2,207.5-1492.2,207.4-1493,207.4z M-1509.5,220.6v-0.4c-0.9,0.4-2.1,0.7-3,0.7
	c-0.7,0-1.4-0.1-1.9-0.6c-0.9-0.7-1.3-1.7-1.3-2.7c0-1.5,1-3.1,2.4-3.4c1-0.2,2.1-0.3,2.9-0.3c0.3,0,0.7,0,1,0v-1.2
	c0-1.3-1.1-1.7-2.5-1.7c-1,0-2,0.1-2.9,0.3l-0.2-1.4c1.1-0.2,2.2-0.3,3.2-0.3c2.2,0,4,0.7,3.9,3.1c0,2.6,0,5.2,0,7.8H-1509.5z
	 M-1509.5,215.4c-0.3,0-0.6,0-1,0c-0.8,0-1.7,0-2.6,0.2c-0.8,0.2-1.3,1.1-1.3,2c0,0.6,0.2,1.2,0.7,1.6c0.2,0.2,0.7,0.2,1.1,0.2
	c1.1,0,2.3-0.4,3-0.8V215.4z M-1522.7,220.7l-3.9-10.4l1.3-0.5l3.1,8.3l3.1-8.4l1.3,0.5l-3.8,10.4H-1522.7z M-1535.5,216.9
	c0,1.6,0.9,2.3,2.1,2.3h4.5v1.4h-4.5c-2,0-3.5-1.2-3.5-3.7v-7c-0.1-2.7,1.4-4.1,3.6-4.1h4.4v1.4h-4.4c-1.3,0-2.3,1-2.2,2.7v2.4h6.8
	v1.4h-6.8V216.9z"/>
</svg>
